M48
;GenerationSoftware,Autodesk,EAGLE,9.2.2*%
;CreationDate,2019-02-23T22:07:19Z*%
FMAT,2
ICI,OFF
METRIC,TZ,000.000
T2C1.016
T1C1.321
%
G90
M71
T1
X36703Y27178
X41707Y27178
X70104Y27178
X75108Y27178
X103505Y27178
X108509Y27178
X17628Y53188
X17628Y48184
T2
X35408Y69088
X37948Y69088
X49886Y69088
X52426Y69088
X64364Y69088
X66904Y69088
X78842Y69088
X81382Y69088
X93320Y69088
X95860Y69088
X107798Y69088
X110338Y69088
M30