G04 EAGLE Gerber RS-274X export*
G75*
%MOMM*%
%FSLAX34Y34*%
%LPD*%
%INSilkscreen Top*%
%IPPOS*%
%AMOC8*
5,1,8,0,0,1.08239X$1,22.5*%
G01*
%ADD10C,0.152400*%
%ADD11C,0.127000*%
%ADD12C,0.177800*%


D10*
X442976Y334010D02*
X442976Y303530D01*
X442976Y334010D02*
X341376Y334010D01*
X442976Y334010D02*
X448056Y334010D01*
X448056Y285750D01*
X442976Y288290D01*
X442976Y219710D02*
X448056Y217170D01*
X442976Y219710D02*
X442976Y209550D01*
X442976Y231140D02*
X448056Y233680D01*
X442976Y231140D02*
X442976Y219710D01*
X448056Y217170D02*
X448056Y233680D01*
X396748Y228600D02*
X396748Y209550D01*
X437388Y228600D02*
X437388Y274320D01*
X437388Y209550D02*
X396748Y209550D01*
X437388Y209550D02*
X442976Y209550D01*
X387350Y209550D02*
X387350Y228600D01*
X387350Y209550D02*
X396748Y209550D01*
X346710Y228600D02*
X346710Y274320D01*
X346710Y209550D02*
X341376Y209550D01*
X346710Y209550D02*
X387350Y209550D01*
X396748Y228600D02*
X437388Y228600D01*
X396748Y228600D02*
X396748Y274320D01*
X437388Y228600D02*
X437388Y209550D01*
X387350Y228600D02*
X346710Y228600D01*
X387350Y228600D02*
X387350Y274320D01*
X346710Y228600D02*
X346710Y209550D01*
X433578Y234950D02*
X433578Y266700D01*
X433578Y234950D02*
X400558Y234950D01*
X400558Y266700D01*
X383540Y266700D02*
X383540Y234950D01*
X350520Y234950D01*
X350520Y266700D01*
X341376Y278130D02*
X341376Y209550D01*
X341376Y278130D02*
X341376Y303530D01*
X442976Y288290D02*
X442976Y278130D01*
X442976Y231140D01*
X442976Y303530D02*
X341376Y303530D01*
X341376Y334010D01*
X442976Y303530D02*
X442976Y288290D01*
X396748Y306070D02*
X396748Y331470D01*
X437388Y331470D01*
X437388Y306070D01*
X396748Y306070D01*
X387350Y306070D02*
X387350Y331470D01*
X387350Y306070D02*
X346710Y306070D01*
X346710Y331470D01*
X387350Y331470D01*
X432307Y322325D02*
X432417Y322200D01*
X432523Y322073D01*
X432627Y321943D01*
X432727Y321810D01*
X432824Y321676D01*
X432918Y321538D01*
X433008Y321399D01*
X433095Y321257D01*
X433179Y321114D01*
X433259Y320968D01*
X433335Y320820D01*
X433408Y320671D01*
X433477Y320520D01*
X433542Y320367D01*
X433604Y320213D01*
X433662Y320057D01*
X433716Y319900D01*
X433766Y319741D01*
X433813Y319582D01*
X433855Y319421D01*
X433894Y319260D01*
X433929Y319097D01*
X433959Y318934D01*
X433986Y318770D01*
X434009Y318605D01*
X434027Y318440D01*
X434042Y318274D01*
X434053Y318109D01*
X434059Y317942D01*
X434062Y317776D01*
X434061Y317610D01*
X434055Y317444D01*
X434045Y317278D01*
X434032Y317113D01*
X434014Y316947D01*
X433993Y316782D01*
X433967Y316618D01*
X433938Y316455D01*
X433904Y316292D01*
X433867Y316130D01*
X433825Y315969D01*
X433780Y315809D01*
X433731Y315651D01*
X433678Y315493D01*
X433621Y315337D01*
X433560Y315182D01*
X433496Y315029D01*
X433428Y314877D01*
X433356Y314727D01*
X433280Y314579D01*
X433201Y314433D01*
X433119Y314289D01*
X433033Y314147D01*
X432944Y314007D01*
X432851Y313869D01*
X432755Y313733D01*
X432655Y313600D01*
X432553Y313469D01*
X432447Y313341D01*
X432338Y313215D01*
X432226Y313093D01*
X432112Y312972D01*
X431994Y312855D01*
X431873Y312741D01*
X431750Y312629D01*
X432214Y312969D02*
X431733Y312618D01*
X431244Y312278D01*
X430746Y311950D01*
X430241Y311635D01*
X429728Y311332D01*
X429208Y311042D01*
X428681Y310764D01*
X428148Y310500D01*
X427608Y310248D01*
X427062Y310010D01*
X426511Y309785D01*
X425954Y309574D01*
X425392Y309376D01*
X424826Y309192D01*
X424255Y309022D01*
X423680Y308866D01*
X423102Y308724D01*
X422520Y308596D01*
X421936Y308483D01*
X421348Y308383D01*
X420759Y308299D01*
X420168Y308228D01*
X419575Y308172D01*
X418981Y308130D01*
X418386Y308103D01*
X417790Y308091D01*
X417195Y308093D01*
X416599Y308110D01*
X416005Y308141D01*
X415411Y308186D01*
X414818Y308246D01*
X414228Y308321D01*
X413639Y308410D01*
X413052Y308513D01*
X412468Y308631D01*
X411888Y308762D01*
X411310Y308908D01*
X410737Y309068D01*
X410167Y309242D01*
X409602Y309430D01*
X409041Y309632D01*
X408486Y309847D01*
X407936Y310075D01*
X407392Y310317D01*
X406854Y310573D01*
X406322Y310841D01*
X405797Y311122D01*
X405279Y311416D01*
X404769Y311722D01*
X404266Y312041D01*
X403770Y312372D01*
X403284Y312715D01*
X402805Y313070D01*
X402336Y313436D01*
X400812Y321818D02*
X401131Y322202D01*
X401459Y322578D01*
X401796Y322946D01*
X402142Y323306D01*
X402496Y323658D01*
X402859Y324001D01*
X403230Y324334D01*
X403609Y324659D01*
X403996Y324975D01*
X404391Y325281D01*
X404792Y325577D01*
X405201Y325864D01*
X405616Y326140D01*
X406039Y326406D01*
X406467Y326662D01*
X406902Y326908D01*
X407342Y327143D01*
X407788Y327367D01*
X408239Y327581D01*
X408695Y327783D01*
X409156Y327974D01*
X409622Y328154D01*
X410092Y328323D01*
X410566Y328480D01*
X411043Y328626D01*
X411524Y328760D01*
X412008Y328882D01*
X412494Y328993D01*
X412984Y329092D01*
X413475Y329179D01*
X413969Y329254D01*
X414464Y329317D01*
X414960Y329367D01*
X415458Y329406D01*
X415956Y329433D01*
X416455Y329448D01*
X416955Y329451D01*
X417454Y329441D01*
X417952Y329419D01*
X418450Y329386D01*
X418947Y329340D01*
X419443Y329282D01*
X419937Y329213D01*
X420430Y329131D01*
X420920Y329037D01*
X421408Y328932D01*
X421893Y328814D01*
X422375Y328685D01*
X422854Y328545D01*
X423330Y328392D01*
X423801Y328229D01*
X424268Y328054D01*
X424732Y327867D01*
X425190Y327670D01*
X425643Y327461D01*
X426092Y327241D01*
X426534Y327011D01*
X426972Y326770D01*
X427403Y326519D01*
X427828Y326257D01*
X428246Y325984D01*
X428658Y325702D01*
X429062Y325410D01*
X429460Y325108D01*
X429850Y324797D01*
X430233Y324476D01*
X430607Y324146D01*
X430974Y323807D01*
X431332Y323460D01*
X431681Y323103D01*
X432022Y322739D01*
X432354Y322366D01*
X402757Y313077D02*
X402625Y313152D01*
X402495Y313231D01*
X402367Y313313D01*
X402242Y313399D01*
X402118Y313487D01*
X401997Y313579D01*
X401878Y313674D01*
X401762Y313772D01*
X401648Y313872D01*
X401537Y313976D01*
X401429Y314082D01*
X401323Y314192D01*
X401220Y314304D01*
X401120Y314418D01*
X401024Y314535D01*
X400930Y314654D01*
X400839Y314776D01*
X400751Y314900D01*
X400667Y315027D01*
X400585Y315155D01*
X400507Y315285D01*
X400433Y315418D01*
X400362Y315552D01*
X400294Y315688D01*
X400230Y315826D01*
X400169Y315965D01*
X400112Y316106D01*
X400059Y316248D01*
X400009Y316392D01*
X399963Y316536D01*
X399921Y316682D01*
X399882Y316829D01*
X399848Y316977D01*
X399817Y317126D01*
X399789Y317275D01*
X399766Y317426D01*
X399747Y317576D01*
X399731Y317727D01*
X399719Y317879D01*
X399711Y318031D01*
X399708Y318182D01*
X399707Y318334D01*
X399711Y318486D01*
X399719Y318638D01*
X399731Y318789D01*
X399746Y318941D01*
X399765Y319091D01*
X399789Y319241D01*
X399816Y319391D01*
X399846Y319540D01*
X399881Y319688D01*
X399920Y319835D01*
X399962Y319981D01*
X400008Y320125D01*
X400057Y320269D01*
X400111Y320411D01*
X400167Y320552D01*
X400228Y320692D01*
X400292Y320829D01*
X400359Y320965D01*
X400430Y321100D01*
X400505Y321232D01*
X400583Y321363D01*
X400664Y321491D01*
X400748Y321618D01*
X400836Y321742D01*
X400926Y321864D01*
X401020Y321983D01*
X401117Y322100D01*
X401217Y322215D01*
X401320Y322327D01*
X400812Y316230D02*
X431292Y322580D01*
X432562Y321310D02*
X402082Y314960D01*
X381712Y312629D02*
X381835Y312741D01*
X381956Y312855D01*
X382074Y312972D01*
X382188Y313093D01*
X382300Y313215D01*
X382409Y313341D01*
X382515Y313469D01*
X382617Y313600D01*
X382717Y313733D01*
X382813Y313869D01*
X382906Y314007D01*
X382995Y314147D01*
X383081Y314289D01*
X383163Y314433D01*
X383242Y314579D01*
X383318Y314727D01*
X383390Y314877D01*
X383458Y315029D01*
X383522Y315182D01*
X383583Y315337D01*
X383640Y315493D01*
X383693Y315651D01*
X383742Y315809D01*
X383787Y315969D01*
X383829Y316130D01*
X383866Y316292D01*
X383900Y316455D01*
X383929Y316618D01*
X383955Y316782D01*
X383976Y316947D01*
X383994Y317113D01*
X384007Y317278D01*
X384017Y317444D01*
X384023Y317610D01*
X384024Y317776D01*
X384021Y317942D01*
X384015Y318109D01*
X384004Y318274D01*
X383989Y318440D01*
X383971Y318605D01*
X383948Y318770D01*
X383921Y318934D01*
X383891Y319097D01*
X383856Y319260D01*
X383817Y319421D01*
X383775Y319582D01*
X383728Y319741D01*
X383678Y319900D01*
X383624Y320057D01*
X383566Y320213D01*
X383504Y320367D01*
X383439Y320520D01*
X383370Y320671D01*
X383297Y320820D01*
X383221Y320968D01*
X383141Y321114D01*
X383057Y321257D01*
X382970Y321399D01*
X382880Y321538D01*
X382786Y321676D01*
X382689Y321810D01*
X382589Y321943D01*
X382485Y322073D01*
X382379Y322200D01*
X382269Y322325D01*
X382176Y312968D02*
X381695Y312616D01*
X381206Y312277D01*
X380709Y311949D01*
X380204Y311634D01*
X379691Y311331D01*
X379171Y311040D01*
X378644Y310763D01*
X378110Y310498D01*
X377571Y310247D01*
X377025Y310009D01*
X376473Y309784D01*
X375916Y309572D01*
X375355Y309375D01*
X374788Y309191D01*
X374217Y309021D01*
X373643Y308865D01*
X373064Y308723D01*
X372483Y308595D01*
X371898Y308482D01*
X371311Y308382D01*
X370721Y308297D01*
X370130Y308227D01*
X369537Y308171D01*
X368943Y308129D01*
X368348Y308102D01*
X367752Y308090D01*
X367157Y308092D01*
X366562Y308109D01*
X365967Y308140D01*
X365373Y308185D01*
X364781Y308245D01*
X364190Y308320D01*
X363601Y308409D01*
X363014Y308512D01*
X362430Y308630D01*
X361850Y308762D01*
X361272Y308908D01*
X360699Y309068D01*
X360129Y309242D01*
X359564Y309429D01*
X359003Y309631D01*
X358448Y309846D01*
X357898Y310075D01*
X357354Y310317D01*
X356816Y310572D01*
X356284Y310840D01*
X355759Y311121D01*
X355241Y311415D01*
X354731Y311722D01*
X354228Y312041D01*
X353732Y312372D01*
X353246Y312715D01*
X352767Y313069D01*
X352298Y313436D01*
X350774Y321818D02*
X351093Y322202D01*
X351421Y322579D01*
X351758Y322947D01*
X352104Y323307D01*
X352458Y323658D01*
X352821Y324001D01*
X353192Y324335D01*
X353571Y324660D01*
X353958Y324975D01*
X354352Y325282D01*
X354754Y325578D01*
X355163Y325864D01*
X355578Y326141D01*
X356000Y326407D01*
X356429Y326664D01*
X356864Y326909D01*
X357304Y327144D01*
X357750Y327369D01*
X358201Y327582D01*
X358658Y327784D01*
X359119Y327976D01*
X359584Y328156D01*
X360054Y328324D01*
X360528Y328482D01*
X361005Y328627D01*
X361486Y328762D01*
X361970Y328884D01*
X362457Y328995D01*
X362946Y329093D01*
X363438Y329180D01*
X363931Y329255D01*
X364426Y329318D01*
X364923Y329369D01*
X365421Y329408D01*
X365919Y329435D01*
X366418Y329450D01*
X366917Y329453D01*
X367416Y329443D01*
X367915Y329422D01*
X368413Y329388D01*
X368910Y329342D01*
X369406Y329284D01*
X369900Y329215D01*
X370393Y329133D01*
X370883Y329039D01*
X371371Y328934D01*
X371856Y328817D01*
X372339Y328688D01*
X372818Y328547D01*
X373293Y328395D01*
X373764Y328231D01*
X374232Y328056D01*
X374695Y327870D01*
X375154Y327672D01*
X375607Y327463D01*
X376055Y327244D01*
X376498Y327014D01*
X376935Y326773D01*
X377367Y326521D01*
X377792Y326259D01*
X378210Y325987D01*
X378622Y325705D01*
X379027Y325413D01*
X379424Y325111D01*
X379814Y324799D01*
X380197Y324479D01*
X380571Y324149D01*
X380938Y323810D01*
X381296Y323462D01*
X381646Y323106D01*
X381987Y322741D01*
X382319Y322368D01*
X352719Y313077D02*
X352587Y313152D01*
X352457Y313231D01*
X352329Y313313D01*
X352204Y313399D01*
X352080Y313487D01*
X351959Y313579D01*
X351840Y313674D01*
X351724Y313772D01*
X351610Y313872D01*
X351499Y313976D01*
X351391Y314082D01*
X351285Y314192D01*
X351182Y314304D01*
X351082Y314418D01*
X350986Y314535D01*
X350892Y314654D01*
X350801Y314776D01*
X350713Y314900D01*
X350629Y315027D01*
X350547Y315155D01*
X350469Y315285D01*
X350395Y315418D01*
X350324Y315552D01*
X350256Y315688D01*
X350192Y315826D01*
X350131Y315965D01*
X350074Y316106D01*
X350021Y316248D01*
X349971Y316392D01*
X349925Y316536D01*
X349883Y316682D01*
X349844Y316829D01*
X349810Y316977D01*
X349779Y317126D01*
X349751Y317275D01*
X349728Y317426D01*
X349709Y317576D01*
X349693Y317727D01*
X349681Y317879D01*
X349673Y318031D01*
X349670Y318182D01*
X349669Y318334D01*
X349673Y318486D01*
X349681Y318638D01*
X349693Y318789D01*
X349708Y318941D01*
X349727Y319091D01*
X349751Y319241D01*
X349778Y319391D01*
X349808Y319540D01*
X349843Y319688D01*
X349882Y319835D01*
X349924Y319981D01*
X349970Y320125D01*
X350019Y320269D01*
X350073Y320411D01*
X350129Y320552D01*
X350190Y320692D01*
X350254Y320829D01*
X350321Y320965D01*
X350392Y321100D01*
X350467Y321232D01*
X350545Y321363D01*
X350626Y321491D01*
X350710Y321618D01*
X350798Y321742D01*
X350888Y321864D01*
X350982Y321983D01*
X351079Y322100D01*
X351179Y322215D01*
X351282Y322327D01*
X350774Y316230D02*
X381254Y322580D01*
X382524Y321310D02*
X352044Y314960D01*
X350520Y274320D02*
X346710Y274320D01*
X383540Y274320D02*
X387350Y274320D01*
X350520Y278130D02*
X341376Y278130D01*
X383540Y278130D02*
X400558Y278130D01*
X433578Y278130D02*
X442976Y278130D01*
X437388Y274320D02*
X433578Y274320D01*
X400558Y274320D02*
X396748Y274320D01*
D11*
X351028Y296545D02*
X347853Y294005D01*
X351028Y296545D02*
X351028Y285115D01*
X347853Y285115D02*
X354203Y285115D01*
X402146Y296546D02*
X402250Y296544D01*
X402355Y296538D01*
X402459Y296529D01*
X402562Y296516D01*
X402665Y296498D01*
X402767Y296478D01*
X402869Y296453D01*
X402969Y296425D01*
X403069Y296393D01*
X403167Y296357D01*
X403264Y296318D01*
X403359Y296276D01*
X403453Y296230D01*
X403545Y296180D01*
X403635Y296128D01*
X403723Y296072D01*
X403809Y296012D01*
X403893Y295950D01*
X403974Y295885D01*
X404053Y295817D01*
X404130Y295745D01*
X404203Y295672D01*
X404275Y295595D01*
X404343Y295516D01*
X404408Y295435D01*
X404470Y295351D01*
X404530Y295265D01*
X404586Y295177D01*
X404638Y295087D01*
X404688Y294995D01*
X404734Y294901D01*
X404776Y294806D01*
X404815Y294709D01*
X404851Y294611D01*
X404883Y294511D01*
X404911Y294411D01*
X404936Y294309D01*
X404956Y294207D01*
X404974Y294104D01*
X404987Y294001D01*
X404996Y293897D01*
X405002Y293792D01*
X405004Y293688D01*
X402146Y296545D02*
X402028Y296543D01*
X401909Y296537D01*
X401791Y296528D01*
X401674Y296515D01*
X401557Y296497D01*
X401440Y296477D01*
X401324Y296452D01*
X401209Y296424D01*
X401096Y296391D01*
X400983Y296356D01*
X400871Y296316D01*
X400761Y296274D01*
X400652Y296227D01*
X400544Y296177D01*
X400439Y296124D01*
X400335Y296067D01*
X400233Y296007D01*
X400133Y295944D01*
X400035Y295877D01*
X399939Y295808D01*
X399846Y295735D01*
X399755Y295659D01*
X399666Y295581D01*
X399580Y295499D01*
X399497Y295415D01*
X399416Y295329D01*
X399339Y295239D01*
X399264Y295148D01*
X399192Y295054D01*
X399123Y294957D01*
X399058Y294859D01*
X398995Y294758D01*
X398936Y294655D01*
X398880Y294551D01*
X398828Y294445D01*
X398779Y294337D01*
X398734Y294228D01*
X398692Y294117D01*
X398654Y294005D01*
X404051Y291466D02*
X404127Y291541D01*
X404202Y291620D01*
X404273Y291701D01*
X404342Y291785D01*
X404407Y291871D01*
X404469Y291959D01*
X404529Y292049D01*
X404585Y292141D01*
X404638Y292236D01*
X404687Y292332D01*
X404733Y292430D01*
X404776Y292529D01*
X404815Y292630D01*
X404850Y292732D01*
X404882Y292835D01*
X404910Y292939D01*
X404935Y293044D01*
X404956Y293151D01*
X404973Y293257D01*
X404986Y293364D01*
X404995Y293472D01*
X405001Y293580D01*
X405003Y293688D01*
X404051Y291465D02*
X398653Y285115D01*
X405003Y285115D01*
D12*
X342265Y339979D02*
X352933Y355981D01*
X342265Y355981D02*
X352933Y339979D01*
X358785Y352425D02*
X363230Y355981D01*
X363230Y339979D01*
X358785Y339979D02*
X367675Y339979D01*
D10*
X776986Y334010D02*
X776986Y303530D01*
X776986Y334010D02*
X675386Y334010D01*
X776986Y334010D02*
X782066Y334010D01*
X782066Y285750D01*
X776986Y288290D01*
X776986Y219710D02*
X782066Y217170D01*
X776986Y219710D02*
X776986Y209550D01*
X776986Y231140D02*
X782066Y233680D01*
X776986Y231140D02*
X776986Y219710D01*
X782066Y217170D02*
X782066Y233680D01*
X730758Y228600D02*
X730758Y209550D01*
X771398Y228600D02*
X771398Y274320D01*
X771398Y209550D02*
X730758Y209550D01*
X771398Y209550D02*
X776986Y209550D01*
X721360Y209550D02*
X721360Y228600D01*
X721360Y209550D02*
X730758Y209550D01*
X680720Y228600D02*
X680720Y274320D01*
X680720Y209550D02*
X675386Y209550D01*
X680720Y209550D02*
X721360Y209550D01*
X730758Y228600D02*
X771398Y228600D01*
X730758Y228600D02*
X730758Y274320D01*
X771398Y228600D02*
X771398Y209550D01*
X721360Y228600D02*
X680720Y228600D01*
X721360Y228600D02*
X721360Y274320D01*
X680720Y228600D02*
X680720Y209550D01*
X767588Y234950D02*
X767588Y266700D01*
X767588Y234950D02*
X734568Y234950D01*
X734568Y266700D01*
X717550Y266700D02*
X717550Y234950D01*
X684530Y234950D01*
X684530Y266700D01*
X675386Y278130D02*
X675386Y209550D01*
X675386Y278130D02*
X675386Y303530D01*
X776986Y288290D02*
X776986Y278130D01*
X776986Y231140D01*
X776986Y303530D02*
X675386Y303530D01*
X675386Y334010D01*
X776986Y303530D02*
X776986Y288290D01*
X730758Y306070D02*
X730758Y331470D01*
X771398Y331470D01*
X771398Y306070D01*
X730758Y306070D01*
X721360Y306070D02*
X721360Y331470D01*
X721360Y306070D02*
X680720Y306070D01*
X680720Y331470D01*
X721360Y331470D01*
X766317Y322325D02*
X766427Y322200D01*
X766533Y322073D01*
X766637Y321943D01*
X766737Y321810D01*
X766834Y321676D01*
X766928Y321538D01*
X767018Y321399D01*
X767105Y321257D01*
X767189Y321114D01*
X767269Y320968D01*
X767345Y320820D01*
X767418Y320671D01*
X767487Y320520D01*
X767552Y320367D01*
X767614Y320213D01*
X767672Y320057D01*
X767726Y319900D01*
X767776Y319741D01*
X767823Y319582D01*
X767865Y319421D01*
X767904Y319260D01*
X767939Y319097D01*
X767969Y318934D01*
X767996Y318770D01*
X768019Y318605D01*
X768037Y318440D01*
X768052Y318274D01*
X768063Y318109D01*
X768069Y317942D01*
X768072Y317776D01*
X768071Y317610D01*
X768065Y317444D01*
X768055Y317278D01*
X768042Y317113D01*
X768024Y316947D01*
X768003Y316782D01*
X767977Y316618D01*
X767948Y316455D01*
X767914Y316292D01*
X767877Y316130D01*
X767835Y315969D01*
X767790Y315809D01*
X767741Y315651D01*
X767688Y315493D01*
X767631Y315337D01*
X767570Y315182D01*
X767506Y315029D01*
X767438Y314877D01*
X767366Y314727D01*
X767290Y314579D01*
X767211Y314433D01*
X767129Y314289D01*
X767043Y314147D01*
X766954Y314007D01*
X766861Y313869D01*
X766765Y313733D01*
X766665Y313600D01*
X766563Y313469D01*
X766457Y313341D01*
X766348Y313215D01*
X766236Y313093D01*
X766122Y312972D01*
X766004Y312855D01*
X765883Y312741D01*
X765760Y312629D01*
X766224Y312969D02*
X765743Y312618D01*
X765254Y312278D01*
X764756Y311950D01*
X764251Y311635D01*
X763738Y311332D01*
X763218Y311042D01*
X762691Y310764D01*
X762158Y310500D01*
X761618Y310248D01*
X761072Y310010D01*
X760521Y309785D01*
X759964Y309574D01*
X759402Y309376D01*
X758836Y309192D01*
X758265Y309022D01*
X757690Y308866D01*
X757112Y308724D01*
X756530Y308596D01*
X755946Y308483D01*
X755358Y308383D01*
X754769Y308299D01*
X754178Y308228D01*
X753585Y308172D01*
X752991Y308130D01*
X752396Y308103D01*
X751800Y308091D01*
X751205Y308093D01*
X750609Y308110D01*
X750015Y308141D01*
X749421Y308186D01*
X748828Y308246D01*
X748238Y308321D01*
X747649Y308410D01*
X747062Y308513D01*
X746478Y308631D01*
X745898Y308762D01*
X745320Y308908D01*
X744747Y309068D01*
X744177Y309242D01*
X743612Y309430D01*
X743051Y309632D01*
X742496Y309847D01*
X741946Y310075D01*
X741402Y310317D01*
X740864Y310573D01*
X740332Y310841D01*
X739807Y311122D01*
X739289Y311416D01*
X738779Y311722D01*
X738276Y312041D01*
X737780Y312372D01*
X737294Y312715D01*
X736815Y313070D01*
X736346Y313436D01*
X734822Y321818D02*
X735141Y322202D01*
X735469Y322578D01*
X735806Y322946D01*
X736152Y323306D01*
X736506Y323658D01*
X736869Y324001D01*
X737240Y324334D01*
X737619Y324659D01*
X738006Y324975D01*
X738401Y325281D01*
X738802Y325577D01*
X739211Y325864D01*
X739626Y326140D01*
X740049Y326406D01*
X740477Y326662D01*
X740912Y326908D01*
X741352Y327143D01*
X741798Y327367D01*
X742249Y327581D01*
X742705Y327783D01*
X743166Y327974D01*
X743632Y328154D01*
X744102Y328323D01*
X744576Y328480D01*
X745053Y328626D01*
X745534Y328760D01*
X746018Y328882D01*
X746504Y328993D01*
X746994Y329092D01*
X747485Y329179D01*
X747979Y329254D01*
X748474Y329317D01*
X748970Y329367D01*
X749468Y329406D01*
X749966Y329433D01*
X750465Y329448D01*
X750965Y329451D01*
X751464Y329441D01*
X751962Y329419D01*
X752460Y329386D01*
X752957Y329340D01*
X753453Y329282D01*
X753947Y329213D01*
X754440Y329131D01*
X754930Y329037D01*
X755418Y328932D01*
X755903Y328814D01*
X756385Y328685D01*
X756864Y328545D01*
X757340Y328392D01*
X757811Y328229D01*
X758278Y328054D01*
X758742Y327867D01*
X759200Y327670D01*
X759653Y327461D01*
X760102Y327241D01*
X760544Y327011D01*
X760982Y326770D01*
X761413Y326519D01*
X761838Y326257D01*
X762256Y325984D01*
X762668Y325702D01*
X763072Y325410D01*
X763470Y325108D01*
X763860Y324797D01*
X764243Y324476D01*
X764617Y324146D01*
X764984Y323807D01*
X765342Y323460D01*
X765691Y323103D01*
X766032Y322739D01*
X766364Y322366D01*
X736767Y313077D02*
X736635Y313152D01*
X736505Y313231D01*
X736377Y313313D01*
X736252Y313399D01*
X736128Y313487D01*
X736007Y313579D01*
X735888Y313674D01*
X735772Y313772D01*
X735658Y313872D01*
X735547Y313976D01*
X735439Y314082D01*
X735333Y314192D01*
X735230Y314304D01*
X735130Y314418D01*
X735034Y314535D01*
X734940Y314654D01*
X734849Y314776D01*
X734761Y314900D01*
X734677Y315027D01*
X734595Y315155D01*
X734517Y315285D01*
X734443Y315418D01*
X734372Y315552D01*
X734304Y315688D01*
X734240Y315826D01*
X734179Y315965D01*
X734122Y316106D01*
X734069Y316248D01*
X734019Y316392D01*
X733973Y316536D01*
X733931Y316682D01*
X733892Y316829D01*
X733858Y316977D01*
X733827Y317126D01*
X733799Y317275D01*
X733776Y317426D01*
X733757Y317576D01*
X733741Y317727D01*
X733729Y317879D01*
X733721Y318031D01*
X733718Y318182D01*
X733717Y318334D01*
X733721Y318486D01*
X733729Y318638D01*
X733741Y318789D01*
X733756Y318941D01*
X733775Y319091D01*
X733799Y319241D01*
X733826Y319391D01*
X733856Y319540D01*
X733891Y319688D01*
X733930Y319835D01*
X733972Y319981D01*
X734018Y320125D01*
X734067Y320269D01*
X734121Y320411D01*
X734177Y320552D01*
X734238Y320692D01*
X734302Y320829D01*
X734369Y320965D01*
X734440Y321100D01*
X734515Y321232D01*
X734593Y321363D01*
X734674Y321491D01*
X734758Y321618D01*
X734846Y321742D01*
X734936Y321864D01*
X735030Y321983D01*
X735127Y322100D01*
X735227Y322215D01*
X735330Y322327D01*
X734822Y316230D02*
X765302Y322580D01*
X766572Y321310D02*
X736092Y314960D01*
X715722Y312629D02*
X715845Y312741D01*
X715966Y312855D01*
X716084Y312972D01*
X716198Y313093D01*
X716310Y313215D01*
X716419Y313341D01*
X716525Y313469D01*
X716627Y313600D01*
X716727Y313733D01*
X716823Y313869D01*
X716916Y314007D01*
X717005Y314147D01*
X717091Y314289D01*
X717173Y314433D01*
X717252Y314579D01*
X717328Y314727D01*
X717400Y314877D01*
X717468Y315029D01*
X717532Y315182D01*
X717593Y315337D01*
X717650Y315493D01*
X717703Y315651D01*
X717752Y315809D01*
X717797Y315969D01*
X717839Y316130D01*
X717876Y316292D01*
X717910Y316455D01*
X717939Y316618D01*
X717965Y316782D01*
X717986Y316947D01*
X718004Y317113D01*
X718017Y317278D01*
X718027Y317444D01*
X718033Y317610D01*
X718034Y317776D01*
X718031Y317942D01*
X718025Y318109D01*
X718014Y318274D01*
X717999Y318440D01*
X717981Y318605D01*
X717958Y318770D01*
X717931Y318934D01*
X717901Y319097D01*
X717866Y319260D01*
X717827Y319421D01*
X717785Y319582D01*
X717738Y319741D01*
X717688Y319900D01*
X717634Y320057D01*
X717576Y320213D01*
X717514Y320367D01*
X717449Y320520D01*
X717380Y320671D01*
X717307Y320820D01*
X717231Y320968D01*
X717151Y321114D01*
X717067Y321257D01*
X716980Y321399D01*
X716890Y321538D01*
X716796Y321676D01*
X716699Y321810D01*
X716599Y321943D01*
X716495Y322073D01*
X716389Y322200D01*
X716279Y322325D01*
X716186Y312968D02*
X715705Y312616D01*
X715216Y312277D01*
X714719Y311949D01*
X714214Y311634D01*
X713701Y311331D01*
X713181Y311040D01*
X712654Y310763D01*
X712120Y310498D01*
X711581Y310247D01*
X711035Y310009D01*
X710483Y309784D01*
X709926Y309572D01*
X709365Y309375D01*
X708798Y309191D01*
X708227Y309021D01*
X707653Y308865D01*
X707074Y308723D01*
X706493Y308595D01*
X705908Y308482D01*
X705321Y308382D01*
X704731Y308297D01*
X704140Y308227D01*
X703547Y308171D01*
X702953Y308129D01*
X702358Y308102D01*
X701762Y308090D01*
X701167Y308092D01*
X700572Y308109D01*
X699977Y308140D01*
X699383Y308185D01*
X698791Y308245D01*
X698200Y308320D01*
X697611Y308409D01*
X697024Y308512D01*
X696440Y308630D01*
X695860Y308762D01*
X695282Y308908D01*
X694709Y309068D01*
X694139Y309242D01*
X693574Y309429D01*
X693013Y309631D01*
X692458Y309846D01*
X691908Y310075D01*
X691364Y310317D01*
X690826Y310572D01*
X690294Y310840D01*
X689769Y311121D01*
X689251Y311415D01*
X688741Y311722D01*
X688238Y312041D01*
X687742Y312372D01*
X687256Y312715D01*
X686777Y313069D01*
X686308Y313436D01*
X684784Y321818D02*
X685103Y322202D01*
X685431Y322579D01*
X685768Y322947D01*
X686114Y323307D01*
X686468Y323658D01*
X686831Y324001D01*
X687202Y324335D01*
X687581Y324660D01*
X687968Y324975D01*
X688362Y325282D01*
X688764Y325578D01*
X689173Y325864D01*
X689588Y326141D01*
X690010Y326407D01*
X690439Y326664D01*
X690874Y326909D01*
X691314Y327144D01*
X691760Y327369D01*
X692211Y327582D01*
X692668Y327784D01*
X693129Y327976D01*
X693594Y328156D01*
X694064Y328324D01*
X694538Y328482D01*
X695015Y328627D01*
X695496Y328762D01*
X695980Y328884D01*
X696467Y328995D01*
X696956Y329093D01*
X697448Y329180D01*
X697941Y329255D01*
X698436Y329318D01*
X698933Y329369D01*
X699431Y329408D01*
X699929Y329435D01*
X700428Y329450D01*
X700927Y329453D01*
X701426Y329443D01*
X701925Y329422D01*
X702423Y329388D01*
X702920Y329342D01*
X703416Y329284D01*
X703910Y329215D01*
X704403Y329133D01*
X704893Y329039D01*
X705381Y328934D01*
X705866Y328817D01*
X706349Y328688D01*
X706828Y328547D01*
X707303Y328395D01*
X707774Y328231D01*
X708242Y328056D01*
X708705Y327870D01*
X709164Y327672D01*
X709617Y327463D01*
X710065Y327244D01*
X710508Y327014D01*
X710945Y326773D01*
X711377Y326521D01*
X711802Y326259D01*
X712220Y325987D01*
X712632Y325705D01*
X713037Y325413D01*
X713434Y325111D01*
X713824Y324799D01*
X714207Y324479D01*
X714581Y324149D01*
X714948Y323810D01*
X715306Y323462D01*
X715656Y323106D01*
X715997Y322741D01*
X716329Y322368D01*
X686729Y313077D02*
X686597Y313152D01*
X686467Y313231D01*
X686339Y313313D01*
X686214Y313399D01*
X686090Y313487D01*
X685969Y313579D01*
X685850Y313674D01*
X685734Y313772D01*
X685620Y313872D01*
X685509Y313976D01*
X685401Y314082D01*
X685295Y314192D01*
X685192Y314304D01*
X685092Y314418D01*
X684996Y314535D01*
X684902Y314654D01*
X684811Y314776D01*
X684723Y314900D01*
X684639Y315027D01*
X684557Y315155D01*
X684479Y315285D01*
X684405Y315418D01*
X684334Y315552D01*
X684266Y315688D01*
X684202Y315826D01*
X684141Y315965D01*
X684084Y316106D01*
X684031Y316248D01*
X683981Y316392D01*
X683935Y316536D01*
X683893Y316682D01*
X683854Y316829D01*
X683820Y316977D01*
X683789Y317126D01*
X683761Y317275D01*
X683738Y317426D01*
X683719Y317576D01*
X683703Y317727D01*
X683691Y317879D01*
X683683Y318031D01*
X683680Y318182D01*
X683679Y318334D01*
X683683Y318486D01*
X683691Y318638D01*
X683703Y318789D01*
X683718Y318941D01*
X683737Y319091D01*
X683761Y319241D01*
X683788Y319391D01*
X683818Y319540D01*
X683853Y319688D01*
X683892Y319835D01*
X683934Y319981D01*
X683980Y320125D01*
X684029Y320269D01*
X684083Y320411D01*
X684139Y320552D01*
X684200Y320692D01*
X684264Y320829D01*
X684331Y320965D01*
X684402Y321100D01*
X684477Y321232D01*
X684555Y321363D01*
X684636Y321491D01*
X684720Y321618D01*
X684808Y321742D01*
X684898Y321864D01*
X684992Y321983D01*
X685089Y322100D01*
X685189Y322215D01*
X685292Y322327D01*
X684784Y316230D02*
X715264Y322580D01*
X716534Y321310D02*
X686054Y314960D01*
X684530Y274320D02*
X680720Y274320D01*
X717550Y274320D02*
X721360Y274320D01*
X684530Y278130D02*
X675386Y278130D01*
X717550Y278130D02*
X734568Y278130D01*
X767588Y278130D02*
X776986Y278130D01*
X771398Y274320D02*
X767588Y274320D01*
X734568Y274320D02*
X730758Y274320D01*
D11*
X685038Y296545D02*
X681863Y294005D01*
X685038Y296545D02*
X685038Y285115D01*
X681863Y285115D02*
X688213Y285115D01*
X736156Y296546D02*
X736260Y296544D01*
X736365Y296538D01*
X736469Y296529D01*
X736572Y296516D01*
X736675Y296498D01*
X736777Y296478D01*
X736879Y296453D01*
X736979Y296425D01*
X737079Y296393D01*
X737177Y296357D01*
X737274Y296318D01*
X737369Y296276D01*
X737463Y296230D01*
X737555Y296180D01*
X737645Y296128D01*
X737733Y296072D01*
X737819Y296012D01*
X737903Y295950D01*
X737984Y295885D01*
X738063Y295817D01*
X738140Y295745D01*
X738213Y295672D01*
X738285Y295595D01*
X738353Y295516D01*
X738418Y295435D01*
X738480Y295351D01*
X738540Y295265D01*
X738596Y295177D01*
X738648Y295087D01*
X738698Y294995D01*
X738744Y294901D01*
X738786Y294806D01*
X738825Y294709D01*
X738861Y294611D01*
X738893Y294511D01*
X738921Y294411D01*
X738946Y294309D01*
X738966Y294207D01*
X738984Y294104D01*
X738997Y294001D01*
X739006Y293897D01*
X739012Y293792D01*
X739014Y293688D01*
X736156Y296545D02*
X736038Y296543D01*
X735919Y296537D01*
X735801Y296528D01*
X735684Y296515D01*
X735567Y296497D01*
X735450Y296477D01*
X735334Y296452D01*
X735219Y296424D01*
X735106Y296391D01*
X734993Y296356D01*
X734881Y296316D01*
X734771Y296274D01*
X734662Y296227D01*
X734554Y296177D01*
X734449Y296124D01*
X734345Y296067D01*
X734243Y296007D01*
X734143Y295944D01*
X734045Y295877D01*
X733949Y295808D01*
X733856Y295735D01*
X733765Y295659D01*
X733676Y295581D01*
X733590Y295499D01*
X733507Y295415D01*
X733426Y295329D01*
X733349Y295239D01*
X733274Y295148D01*
X733202Y295054D01*
X733133Y294957D01*
X733068Y294859D01*
X733005Y294758D01*
X732946Y294655D01*
X732890Y294551D01*
X732838Y294445D01*
X732789Y294337D01*
X732744Y294228D01*
X732702Y294117D01*
X732664Y294005D01*
X738061Y291466D02*
X738137Y291541D01*
X738212Y291620D01*
X738283Y291701D01*
X738352Y291785D01*
X738417Y291871D01*
X738479Y291959D01*
X738539Y292049D01*
X738595Y292141D01*
X738648Y292236D01*
X738697Y292332D01*
X738743Y292430D01*
X738786Y292529D01*
X738825Y292630D01*
X738860Y292732D01*
X738892Y292835D01*
X738920Y292939D01*
X738945Y293044D01*
X738966Y293151D01*
X738983Y293257D01*
X738996Y293364D01*
X739005Y293472D01*
X739011Y293580D01*
X739013Y293688D01*
X738061Y291465D02*
X732663Y285115D01*
X739013Y285115D01*
D12*
X676275Y339979D02*
X686943Y355981D01*
X676275Y355981D02*
X686943Y339979D01*
X701686Y351981D02*
X701684Y352107D01*
X701678Y352232D01*
X701668Y352358D01*
X701654Y352482D01*
X701637Y352607D01*
X701615Y352731D01*
X701590Y352854D01*
X701560Y352976D01*
X701527Y353097D01*
X701490Y353217D01*
X701449Y353336D01*
X701405Y353454D01*
X701357Y353570D01*
X701305Y353685D01*
X701250Y353797D01*
X701191Y353908D01*
X701129Y354018D01*
X701063Y354125D01*
X700994Y354230D01*
X700922Y354333D01*
X700846Y354433D01*
X700768Y354531D01*
X700686Y354627D01*
X700602Y354720D01*
X700514Y354810D01*
X700424Y354898D01*
X700331Y354982D01*
X700235Y355064D01*
X700137Y355142D01*
X700037Y355218D01*
X699934Y355290D01*
X699829Y355359D01*
X699722Y355425D01*
X699612Y355487D01*
X699501Y355546D01*
X699389Y355601D01*
X699274Y355653D01*
X699158Y355701D01*
X699040Y355745D01*
X698921Y355786D01*
X698801Y355823D01*
X698680Y355856D01*
X698558Y355886D01*
X698435Y355911D01*
X698311Y355933D01*
X698186Y355950D01*
X698062Y355964D01*
X697936Y355974D01*
X697811Y355980D01*
X697685Y355982D01*
X697685Y355981D02*
X697544Y355979D01*
X697404Y355973D01*
X697264Y355964D01*
X697124Y355950D01*
X696985Y355933D01*
X696846Y355912D01*
X696707Y355887D01*
X696570Y355859D01*
X696433Y355826D01*
X696297Y355790D01*
X696162Y355750D01*
X696029Y355707D01*
X695896Y355660D01*
X695765Y355609D01*
X695636Y355555D01*
X695508Y355497D01*
X695381Y355436D01*
X695256Y355371D01*
X695134Y355303D01*
X695013Y355232D01*
X694893Y355157D01*
X694777Y355079D01*
X694662Y354998D01*
X694549Y354914D01*
X694439Y354826D01*
X694331Y354736D01*
X694226Y354643D01*
X694124Y354547D01*
X694024Y354448D01*
X693926Y354347D01*
X693832Y354243D01*
X693740Y354136D01*
X693652Y354027D01*
X693566Y353916D01*
X693484Y353802D01*
X693404Y353686D01*
X693328Y353568D01*
X693255Y353448D01*
X693186Y353326D01*
X693119Y353202D01*
X693056Y353076D01*
X692997Y352949D01*
X692941Y352820D01*
X692889Y352690D01*
X692840Y352558D01*
X692795Y352425D01*
X700351Y348869D02*
X700443Y348960D01*
X700533Y349053D01*
X700619Y349148D01*
X700703Y349246D01*
X700783Y349347D01*
X700861Y349450D01*
X700935Y349555D01*
X701006Y349663D01*
X701074Y349772D01*
X701138Y349884D01*
X701200Y349997D01*
X701257Y350112D01*
X701312Y350229D01*
X701363Y350348D01*
X701410Y350468D01*
X701453Y350589D01*
X701493Y350711D01*
X701529Y350835D01*
X701562Y350960D01*
X701591Y351085D01*
X701616Y351212D01*
X701637Y351339D01*
X701654Y351467D01*
X701668Y351595D01*
X701677Y351723D01*
X701683Y351852D01*
X701685Y351981D01*
X700352Y348869D02*
X692795Y339979D01*
X701685Y339979D01*
D10*
X1110996Y334010D02*
X1110996Y303530D01*
X1110996Y334010D02*
X1009396Y334010D01*
X1110996Y334010D02*
X1116076Y334010D01*
X1116076Y285750D01*
X1110996Y288290D01*
X1110996Y219710D02*
X1116076Y217170D01*
X1110996Y219710D02*
X1110996Y209550D01*
X1110996Y231140D02*
X1116076Y233680D01*
X1110996Y231140D02*
X1110996Y219710D01*
X1116076Y217170D02*
X1116076Y233680D01*
X1064768Y228600D02*
X1064768Y209550D01*
X1105408Y228600D02*
X1105408Y274320D01*
X1105408Y209550D02*
X1064768Y209550D01*
X1105408Y209550D02*
X1110996Y209550D01*
X1055370Y209550D02*
X1055370Y228600D01*
X1055370Y209550D02*
X1064768Y209550D01*
X1014730Y228600D02*
X1014730Y274320D01*
X1014730Y209550D02*
X1009396Y209550D01*
X1014730Y209550D02*
X1055370Y209550D01*
X1064768Y228600D02*
X1105408Y228600D01*
X1064768Y228600D02*
X1064768Y274320D01*
X1105408Y228600D02*
X1105408Y209550D01*
X1055370Y228600D02*
X1014730Y228600D01*
X1055370Y228600D02*
X1055370Y274320D01*
X1014730Y228600D02*
X1014730Y209550D01*
X1101598Y234950D02*
X1101598Y266700D01*
X1101598Y234950D02*
X1068578Y234950D01*
X1068578Y266700D01*
X1051560Y266700D02*
X1051560Y234950D01*
X1018540Y234950D01*
X1018540Y266700D01*
X1009396Y278130D02*
X1009396Y209550D01*
X1009396Y278130D02*
X1009396Y303530D01*
X1110996Y288290D02*
X1110996Y278130D01*
X1110996Y231140D01*
X1110996Y303530D02*
X1009396Y303530D01*
X1009396Y334010D01*
X1110996Y303530D02*
X1110996Y288290D01*
X1064768Y306070D02*
X1064768Y331470D01*
X1105408Y331470D01*
X1105408Y306070D01*
X1064768Y306070D01*
X1055370Y306070D02*
X1055370Y331470D01*
X1055370Y306070D02*
X1014730Y306070D01*
X1014730Y331470D01*
X1055370Y331470D01*
X1100327Y322325D02*
X1100437Y322200D01*
X1100543Y322073D01*
X1100647Y321943D01*
X1100747Y321810D01*
X1100844Y321676D01*
X1100938Y321538D01*
X1101028Y321399D01*
X1101115Y321257D01*
X1101199Y321114D01*
X1101279Y320968D01*
X1101355Y320820D01*
X1101428Y320671D01*
X1101497Y320520D01*
X1101562Y320367D01*
X1101624Y320213D01*
X1101682Y320057D01*
X1101736Y319900D01*
X1101786Y319741D01*
X1101833Y319582D01*
X1101875Y319421D01*
X1101914Y319260D01*
X1101949Y319097D01*
X1101979Y318934D01*
X1102006Y318770D01*
X1102029Y318605D01*
X1102047Y318440D01*
X1102062Y318274D01*
X1102073Y318109D01*
X1102079Y317942D01*
X1102082Y317776D01*
X1102081Y317610D01*
X1102075Y317444D01*
X1102065Y317278D01*
X1102052Y317113D01*
X1102034Y316947D01*
X1102013Y316782D01*
X1101987Y316618D01*
X1101958Y316455D01*
X1101924Y316292D01*
X1101887Y316130D01*
X1101845Y315969D01*
X1101800Y315809D01*
X1101751Y315651D01*
X1101698Y315493D01*
X1101641Y315337D01*
X1101580Y315182D01*
X1101516Y315029D01*
X1101448Y314877D01*
X1101376Y314727D01*
X1101300Y314579D01*
X1101221Y314433D01*
X1101139Y314289D01*
X1101053Y314147D01*
X1100964Y314007D01*
X1100871Y313869D01*
X1100775Y313733D01*
X1100675Y313600D01*
X1100573Y313469D01*
X1100467Y313341D01*
X1100358Y313215D01*
X1100246Y313093D01*
X1100132Y312972D01*
X1100014Y312855D01*
X1099893Y312741D01*
X1099770Y312629D01*
X1100234Y312969D02*
X1099753Y312618D01*
X1099264Y312278D01*
X1098766Y311950D01*
X1098261Y311635D01*
X1097748Y311332D01*
X1097228Y311042D01*
X1096701Y310764D01*
X1096168Y310500D01*
X1095628Y310248D01*
X1095082Y310010D01*
X1094531Y309785D01*
X1093974Y309574D01*
X1093412Y309376D01*
X1092846Y309192D01*
X1092275Y309022D01*
X1091700Y308866D01*
X1091122Y308724D01*
X1090540Y308596D01*
X1089956Y308483D01*
X1089368Y308383D01*
X1088779Y308299D01*
X1088188Y308228D01*
X1087595Y308172D01*
X1087001Y308130D01*
X1086406Y308103D01*
X1085810Y308091D01*
X1085215Y308093D01*
X1084619Y308110D01*
X1084025Y308141D01*
X1083431Y308186D01*
X1082838Y308246D01*
X1082248Y308321D01*
X1081659Y308410D01*
X1081072Y308513D01*
X1080488Y308631D01*
X1079908Y308762D01*
X1079330Y308908D01*
X1078757Y309068D01*
X1078187Y309242D01*
X1077622Y309430D01*
X1077061Y309632D01*
X1076506Y309847D01*
X1075956Y310075D01*
X1075412Y310317D01*
X1074874Y310573D01*
X1074342Y310841D01*
X1073817Y311122D01*
X1073299Y311416D01*
X1072789Y311722D01*
X1072286Y312041D01*
X1071790Y312372D01*
X1071304Y312715D01*
X1070825Y313070D01*
X1070356Y313436D01*
X1068832Y321818D02*
X1069151Y322202D01*
X1069479Y322578D01*
X1069816Y322946D01*
X1070162Y323306D01*
X1070516Y323658D01*
X1070879Y324001D01*
X1071250Y324334D01*
X1071629Y324659D01*
X1072016Y324975D01*
X1072411Y325281D01*
X1072812Y325577D01*
X1073221Y325864D01*
X1073636Y326140D01*
X1074059Y326406D01*
X1074487Y326662D01*
X1074922Y326908D01*
X1075362Y327143D01*
X1075808Y327367D01*
X1076259Y327581D01*
X1076715Y327783D01*
X1077176Y327974D01*
X1077642Y328154D01*
X1078112Y328323D01*
X1078586Y328480D01*
X1079063Y328626D01*
X1079544Y328760D01*
X1080028Y328882D01*
X1080514Y328993D01*
X1081004Y329092D01*
X1081495Y329179D01*
X1081989Y329254D01*
X1082484Y329317D01*
X1082980Y329367D01*
X1083478Y329406D01*
X1083976Y329433D01*
X1084475Y329448D01*
X1084975Y329451D01*
X1085474Y329441D01*
X1085972Y329419D01*
X1086470Y329386D01*
X1086967Y329340D01*
X1087463Y329282D01*
X1087957Y329213D01*
X1088450Y329131D01*
X1088940Y329037D01*
X1089428Y328932D01*
X1089913Y328814D01*
X1090395Y328685D01*
X1090874Y328545D01*
X1091350Y328392D01*
X1091821Y328229D01*
X1092288Y328054D01*
X1092752Y327867D01*
X1093210Y327670D01*
X1093663Y327461D01*
X1094112Y327241D01*
X1094554Y327011D01*
X1094992Y326770D01*
X1095423Y326519D01*
X1095848Y326257D01*
X1096266Y325984D01*
X1096678Y325702D01*
X1097082Y325410D01*
X1097480Y325108D01*
X1097870Y324797D01*
X1098253Y324476D01*
X1098627Y324146D01*
X1098994Y323807D01*
X1099352Y323460D01*
X1099701Y323103D01*
X1100042Y322739D01*
X1100374Y322366D01*
X1070777Y313077D02*
X1070645Y313152D01*
X1070515Y313231D01*
X1070387Y313313D01*
X1070262Y313399D01*
X1070138Y313487D01*
X1070017Y313579D01*
X1069898Y313674D01*
X1069782Y313772D01*
X1069668Y313872D01*
X1069557Y313976D01*
X1069449Y314082D01*
X1069343Y314192D01*
X1069240Y314304D01*
X1069140Y314418D01*
X1069044Y314535D01*
X1068950Y314654D01*
X1068859Y314776D01*
X1068771Y314900D01*
X1068687Y315027D01*
X1068605Y315155D01*
X1068527Y315285D01*
X1068453Y315418D01*
X1068382Y315552D01*
X1068314Y315688D01*
X1068250Y315826D01*
X1068189Y315965D01*
X1068132Y316106D01*
X1068079Y316248D01*
X1068029Y316392D01*
X1067983Y316536D01*
X1067941Y316682D01*
X1067902Y316829D01*
X1067868Y316977D01*
X1067837Y317126D01*
X1067809Y317275D01*
X1067786Y317426D01*
X1067767Y317576D01*
X1067751Y317727D01*
X1067739Y317879D01*
X1067731Y318031D01*
X1067728Y318182D01*
X1067727Y318334D01*
X1067731Y318486D01*
X1067739Y318638D01*
X1067751Y318789D01*
X1067766Y318941D01*
X1067785Y319091D01*
X1067809Y319241D01*
X1067836Y319391D01*
X1067866Y319540D01*
X1067901Y319688D01*
X1067940Y319835D01*
X1067982Y319981D01*
X1068028Y320125D01*
X1068077Y320269D01*
X1068131Y320411D01*
X1068187Y320552D01*
X1068248Y320692D01*
X1068312Y320829D01*
X1068379Y320965D01*
X1068450Y321100D01*
X1068525Y321232D01*
X1068603Y321363D01*
X1068684Y321491D01*
X1068768Y321618D01*
X1068856Y321742D01*
X1068946Y321864D01*
X1069040Y321983D01*
X1069137Y322100D01*
X1069237Y322215D01*
X1069340Y322327D01*
X1068832Y316230D02*
X1099312Y322580D01*
X1100582Y321310D02*
X1070102Y314960D01*
X1049732Y312629D02*
X1049855Y312741D01*
X1049976Y312855D01*
X1050094Y312972D01*
X1050208Y313093D01*
X1050320Y313215D01*
X1050429Y313341D01*
X1050535Y313469D01*
X1050637Y313600D01*
X1050737Y313733D01*
X1050833Y313869D01*
X1050926Y314007D01*
X1051015Y314147D01*
X1051101Y314289D01*
X1051183Y314433D01*
X1051262Y314579D01*
X1051338Y314727D01*
X1051410Y314877D01*
X1051478Y315029D01*
X1051542Y315182D01*
X1051603Y315337D01*
X1051660Y315493D01*
X1051713Y315651D01*
X1051762Y315809D01*
X1051807Y315969D01*
X1051849Y316130D01*
X1051886Y316292D01*
X1051920Y316455D01*
X1051949Y316618D01*
X1051975Y316782D01*
X1051996Y316947D01*
X1052014Y317113D01*
X1052027Y317278D01*
X1052037Y317444D01*
X1052043Y317610D01*
X1052044Y317776D01*
X1052041Y317942D01*
X1052035Y318109D01*
X1052024Y318274D01*
X1052009Y318440D01*
X1051991Y318605D01*
X1051968Y318770D01*
X1051941Y318934D01*
X1051911Y319097D01*
X1051876Y319260D01*
X1051837Y319421D01*
X1051795Y319582D01*
X1051748Y319741D01*
X1051698Y319900D01*
X1051644Y320057D01*
X1051586Y320213D01*
X1051524Y320367D01*
X1051459Y320520D01*
X1051390Y320671D01*
X1051317Y320820D01*
X1051241Y320968D01*
X1051161Y321114D01*
X1051077Y321257D01*
X1050990Y321399D01*
X1050900Y321538D01*
X1050806Y321676D01*
X1050709Y321810D01*
X1050609Y321943D01*
X1050505Y322073D01*
X1050399Y322200D01*
X1050289Y322325D01*
X1050196Y312968D02*
X1049715Y312616D01*
X1049226Y312277D01*
X1048729Y311949D01*
X1048224Y311634D01*
X1047711Y311331D01*
X1047191Y311040D01*
X1046664Y310763D01*
X1046130Y310498D01*
X1045591Y310247D01*
X1045045Y310009D01*
X1044493Y309784D01*
X1043936Y309572D01*
X1043375Y309375D01*
X1042808Y309191D01*
X1042237Y309021D01*
X1041663Y308865D01*
X1041084Y308723D01*
X1040503Y308595D01*
X1039918Y308482D01*
X1039331Y308382D01*
X1038741Y308297D01*
X1038150Y308227D01*
X1037557Y308171D01*
X1036963Y308129D01*
X1036368Y308102D01*
X1035772Y308090D01*
X1035177Y308092D01*
X1034582Y308109D01*
X1033987Y308140D01*
X1033393Y308185D01*
X1032801Y308245D01*
X1032210Y308320D01*
X1031621Y308409D01*
X1031034Y308512D01*
X1030450Y308630D01*
X1029870Y308762D01*
X1029292Y308908D01*
X1028719Y309068D01*
X1028149Y309242D01*
X1027584Y309429D01*
X1027023Y309631D01*
X1026468Y309846D01*
X1025918Y310075D01*
X1025374Y310317D01*
X1024836Y310572D01*
X1024304Y310840D01*
X1023779Y311121D01*
X1023261Y311415D01*
X1022751Y311722D01*
X1022248Y312041D01*
X1021752Y312372D01*
X1021266Y312715D01*
X1020787Y313069D01*
X1020318Y313436D01*
X1018794Y321818D02*
X1019113Y322202D01*
X1019441Y322579D01*
X1019778Y322947D01*
X1020124Y323307D01*
X1020478Y323658D01*
X1020841Y324001D01*
X1021212Y324335D01*
X1021591Y324660D01*
X1021978Y324975D01*
X1022372Y325282D01*
X1022774Y325578D01*
X1023183Y325864D01*
X1023598Y326141D01*
X1024020Y326407D01*
X1024449Y326664D01*
X1024884Y326909D01*
X1025324Y327144D01*
X1025770Y327369D01*
X1026221Y327582D01*
X1026678Y327784D01*
X1027139Y327976D01*
X1027604Y328156D01*
X1028074Y328324D01*
X1028548Y328482D01*
X1029025Y328627D01*
X1029506Y328762D01*
X1029990Y328884D01*
X1030477Y328995D01*
X1030966Y329093D01*
X1031458Y329180D01*
X1031951Y329255D01*
X1032446Y329318D01*
X1032943Y329369D01*
X1033441Y329408D01*
X1033939Y329435D01*
X1034438Y329450D01*
X1034937Y329453D01*
X1035436Y329443D01*
X1035935Y329422D01*
X1036433Y329388D01*
X1036930Y329342D01*
X1037426Y329284D01*
X1037920Y329215D01*
X1038413Y329133D01*
X1038903Y329039D01*
X1039391Y328934D01*
X1039876Y328817D01*
X1040359Y328688D01*
X1040838Y328547D01*
X1041313Y328395D01*
X1041784Y328231D01*
X1042252Y328056D01*
X1042715Y327870D01*
X1043174Y327672D01*
X1043627Y327463D01*
X1044075Y327244D01*
X1044518Y327014D01*
X1044955Y326773D01*
X1045387Y326521D01*
X1045812Y326259D01*
X1046230Y325987D01*
X1046642Y325705D01*
X1047047Y325413D01*
X1047444Y325111D01*
X1047834Y324799D01*
X1048217Y324479D01*
X1048591Y324149D01*
X1048958Y323810D01*
X1049316Y323462D01*
X1049666Y323106D01*
X1050007Y322741D01*
X1050339Y322368D01*
X1020739Y313077D02*
X1020607Y313152D01*
X1020477Y313231D01*
X1020349Y313313D01*
X1020224Y313399D01*
X1020100Y313487D01*
X1019979Y313579D01*
X1019860Y313674D01*
X1019744Y313772D01*
X1019630Y313872D01*
X1019519Y313976D01*
X1019411Y314082D01*
X1019305Y314192D01*
X1019202Y314304D01*
X1019102Y314418D01*
X1019006Y314535D01*
X1018912Y314654D01*
X1018821Y314776D01*
X1018733Y314900D01*
X1018649Y315027D01*
X1018567Y315155D01*
X1018489Y315285D01*
X1018415Y315418D01*
X1018344Y315552D01*
X1018276Y315688D01*
X1018212Y315826D01*
X1018151Y315965D01*
X1018094Y316106D01*
X1018041Y316248D01*
X1017991Y316392D01*
X1017945Y316536D01*
X1017903Y316682D01*
X1017864Y316829D01*
X1017830Y316977D01*
X1017799Y317126D01*
X1017771Y317275D01*
X1017748Y317426D01*
X1017729Y317576D01*
X1017713Y317727D01*
X1017701Y317879D01*
X1017693Y318031D01*
X1017690Y318182D01*
X1017689Y318334D01*
X1017693Y318486D01*
X1017701Y318638D01*
X1017713Y318789D01*
X1017728Y318941D01*
X1017747Y319091D01*
X1017771Y319241D01*
X1017798Y319391D01*
X1017828Y319540D01*
X1017863Y319688D01*
X1017902Y319835D01*
X1017944Y319981D01*
X1017990Y320125D01*
X1018039Y320269D01*
X1018093Y320411D01*
X1018149Y320552D01*
X1018210Y320692D01*
X1018274Y320829D01*
X1018341Y320965D01*
X1018412Y321100D01*
X1018487Y321232D01*
X1018565Y321363D01*
X1018646Y321491D01*
X1018730Y321618D01*
X1018818Y321742D01*
X1018908Y321864D01*
X1019002Y321983D01*
X1019099Y322100D01*
X1019199Y322215D01*
X1019302Y322327D01*
X1018794Y316230D02*
X1049274Y322580D01*
X1050544Y321310D02*
X1020064Y314960D01*
X1018540Y274320D02*
X1014730Y274320D01*
X1051560Y274320D02*
X1055370Y274320D01*
X1018540Y278130D02*
X1009396Y278130D01*
X1051560Y278130D02*
X1068578Y278130D01*
X1101598Y278130D02*
X1110996Y278130D01*
X1105408Y274320D02*
X1101598Y274320D01*
X1068578Y274320D02*
X1064768Y274320D01*
D11*
X1019048Y296545D02*
X1015873Y294005D01*
X1019048Y296545D02*
X1019048Y285115D01*
X1015873Y285115D02*
X1022223Y285115D01*
X1070166Y296546D02*
X1070270Y296544D01*
X1070375Y296538D01*
X1070479Y296529D01*
X1070582Y296516D01*
X1070685Y296498D01*
X1070787Y296478D01*
X1070889Y296453D01*
X1070989Y296425D01*
X1071089Y296393D01*
X1071187Y296357D01*
X1071284Y296318D01*
X1071379Y296276D01*
X1071473Y296230D01*
X1071565Y296180D01*
X1071655Y296128D01*
X1071743Y296072D01*
X1071829Y296012D01*
X1071913Y295950D01*
X1071994Y295885D01*
X1072073Y295817D01*
X1072150Y295745D01*
X1072223Y295672D01*
X1072295Y295595D01*
X1072363Y295516D01*
X1072428Y295435D01*
X1072490Y295351D01*
X1072550Y295265D01*
X1072606Y295177D01*
X1072658Y295087D01*
X1072708Y294995D01*
X1072754Y294901D01*
X1072796Y294806D01*
X1072835Y294709D01*
X1072871Y294611D01*
X1072903Y294511D01*
X1072931Y294411D01*
X1072956Y294309D01*
X1072976Y294207D01*
X1072994Y294104D01*
X1073007Y294001D01*
X1073016Y293897D01*
X1073022Y293792D01*
X1073024Y293688D01*
X1070166Y296545D02*
X1070048Y296543D01*
X1069929Y296537D01*
X1069811Y296528D01*
X1069694Y296515D01*
X1069577Y296497D01*
X1069460Y296477D01*
X1069344Y296452D01*
X1069229Y296424D01*
X1069116Y296391D01*
X1069003Y296356D01*
X1068891Y296316D01*
X1068781Y296274D01*
X1068672Y296227D01*
X1068564Y296177D01*
X1068459Y296124D01*
X1068355Y296067D01*
X1068253Y296007D01*
X1068153Y295944D01*
X1068055Y295877D01*
X1067959Y295808D01*
X1067866Y295735D01*
X1067775Y295659D01*
X1067686Y295581D01*
X1067600Y295499D01*
X1067517Y295415D01*
X1067436Y295329D01*
X1067359Y295239D01*
X1067284Y295148D01*
X1067212Y295054D01*
X1067143Y294957D01*
X1067078Y294859D01*
X1067015Y294758D01*
X1066956Y294655D01*
X1066900Y294551D01*
X1066848Y294445D01*
X1066799Y294337D01*
X1066754Y294228D01*
X1066712Y294117D01*
X1066674Y294005D01*
X1072071Y291466D02*
X1072147Y291541D01*
X1072222Y291620D01*
X1072293Y291701D01*
X1072362Y291785D01*
X1072427Y291871D01*
X1072489Y291959D01*
X1072549Y292049D01*
X1072605Y292141D01*
X1072658Y292236D01*
X1072707Y292332D01*
X1072753Y292430D01*
X1072796Y292529D01*
X1072835Y292630D01*
X1072870Y292732D01*
X1072902Y292835D01*
X1072930Y292939D01*
X1072955Y293044D01*
X1072976Y293151D01*
X1072993Y293257D01*
X1073006Y293364D01*
X1073015Y293472D01*
X1073021Y293580D01*
X1073023Y293688D01*
X1072071Y291465D02*
X1066673Y285115D01*
X1073023Y285115D01*
D12*
X1010285Y339979D02*
X1020953Y355981D01*
X1010285Y355981D02*
X1020953Y339979D01*
X1026805Y339979D02*
X1031250Y339979D01*
X1031382Y339981D01*
X1031513Y339987D01*
X1031645Y339997D01*
X1031776Y340010D01*
X1031906Y340028D01*
X1032036Y340049D01*
X1032166Y340074D01*
X1032294Y340103D01*
X1032422Y340136D01*
X1032548Y340173D01*
X1032674Y340213D01*
X1032798Y340257D01*
X1032921Y340305D01*
X1033042Y340356D01*
X1033162Y340411D01*
X1033280Y340469D01*
X1033396Y340531D01*
X1033510Y340597D01*
X1033623Y340665D01*
X1033733Y340737D01*
X1033841Y340812D01*
X1033947Y340891D01*
X1034051Y340972D01*
X1034152Y341057D01*
X1034250Y341144D01*
X1034346Y341235D01*
X1034439Y341328D01*
X1034530Y341424D01*
X1034617Y341522D01*
X1034702Y341623D01*
X1034783Y341727D01*
X1034862Y341833D01*
X1034937Y341941D01*
X1035009Y342051D01*
X1035077Y342164D01*
X1035143Y342278D01*
X1035205Y342394D01*
X1035263Y342512D01*
X1035318Y342632D01*
X1035369Y342753D01*
X1035417Y342876D01*
X1035461Y343000D01*
X1035501Y343126D01*
X1035538Y343252D01*
X1035571Y343380D01*
X1035600Y343508D01*
X1035625Y343638D01*
X1035646Y343768D01*
X1035664Y343898D01*
X1035677Y344029D01*
X1035687Y344161D01*
X1035693Y344292D01*
X1035695Y344424D01*
X1035693Y344556D01*
X1035687Y344687D01*
X1035677Y344819D01*
X1035664Y344950D01*
X1035646Y345080D01*
X1035625Y345210D01*
X1035600Y345340D01*
X1035571Y345468D01*
X1035538Y345596D01*
X1035501Y345722D01*
X1035461Y345848D01*
X1035417Y345972D01*
X1035369Y346095D01*
X1035318Y346216D01*
X1035263Y346336D01*
X1035205Y346454D01*
X1035143Y346570D01*
X1035077Y346684D01*
X1035009Y346797D01*
X1034937Y346907D01*
X1034862Y347015D01*
X1034783Y347121D01*
X1034702Y347225D01*
X1034617Y347326D01*
X1034530Y347424D01*
X1034439Y347520D01*
X1034346Y347613D01*
X1034250Y347704D01*
X1034152Y347791D01*
X1034051Y347876D01*
X1033947Y347957D01*
X1033841Y348036D01*
X1033733Y348111D01*
X1033623Y348183D01*
X1033510Y348251D01*
X1033396Y348317D01*
X1033280Y348379D01*
X1033162Y348437D01*
X1033042Y348492D01*
X1032921Y348543D01*
X1032798Y348591D01*
X1032674Y348635D01*
X1032548Y348675D01*
X1032422Y348712D01*
X1032294Y348745D01*
X1032166Y348774D01*
X1032036Y348799D01*
X1031906Y348820D01*
X1031776Y348838D01*
X1031645Y348851D01*
X1031513Y348861D01*
X1031382Y348867D01*
X1031250Y348869D01*
X1032139Y355981D02*
X1026805Y355981D01*
X1032139Y355981D02*
X1032257Y355979D01*
X1032374Y355973D01*
X1032491Y355964D01*
X1032608Y355950D01*
X1032724Y355933D01*
X1032840Y355911D01*
X1032955Y355886D01*
X1033069Y355857D01*
X1033182Y355825D01*
X1033294Y355788D01*
X1033404Y355748D01*
X1033513Y355705D01*
X1033621Y355657D01*
X1033727Y355607D01*
X1033831Y355552D01*
X1033934Y355495D01*
X1034034Y355434D01*
X1034133Y355369D01*
X1034229Y355302D01*
X1034323Y355231D01*
X1034415Y355157D01*
X1034504Y355081D01*
X1034590Y355001D01*
X1034674Y354919D01*
X1034755Y354833D01*
X1034833Y354746D01*
X1034909Y354655D01*
X1034981Y354562D01*
X1035050Y354467D01*
X1035116Y354370D01*
X1035179Y354270D01*
X1035238Y354169D01*
X1035294Y354066D01*
X1035346Y353960D01*
X1035395Y353853D01*
X1035441Y353745D01*
X1035483Y353635D01*
X1035521Y353524D01*
X1035555Y353411D01*
X1035586Y353298D01*
X1035613Y353183D01*
X1035636Y353068D01*
X1035656Y352952D01*
X1035671Y352836D01*
X1035683Y352719D01*
X1035691Y352601D01*
X1035695Y352484D01*
X1035695Y352366D01*
X1035691Y352249D01*
X1035683Y352131D01*
X1035671Y352014D01*
X1035656Y351898D01*
X1035636Y351782D01*
X1035613Y351667D01*
X1035586Y351552D01*
X1035555Y351439D01*
X1035521Y351326D01*
X1035483Y351215D01*
X1035441Y351105D01*
X1035395Y350997D01*
X1035346Y350890D01*
X1035294Y350784D01*
X1035238Y350681D01*
X1035179Y350580D01*
X1035116Y350480D01*
X1035050Y350383D01*
X1034981Y350288D01*
X1034909Y350195D01*
X1034833Y350104D01*
X1034755Y350017D01*
X1034674Y349931D01*
X1034590Y349849D01*
X1034504Y349769D01*
X1034415Y349693D01*
X1034323Y349619D01*
X1034229Y349548D01*
X1034133Y349481D01*
X1034034Y349416D01*
X1033934Y349355D01*
X1033831Y349298D01*
X1033727Y349243D01*
X1033621Y349193D01*
X1033513Y349145D01*
X1033404Y349102D01*
X1033294Y349062D01*
X1033182Y349025D01*
X1033069Y348993D01*
X1032955Y348964D01*
X1032840Y348939D01*
X1032724Y348917D01*
X1032608Y348900D01*
X1032491Y348886D01*
X1032374Y348877D01*
X1032257Y348871D01*
X1032139Y348869D01*
X1028583Y348869D01*
D10*
X238506Y455930D02*
X208026Y455930D01*
X238506Y455930D02*
X238506Y557530D01*
X238506Y455930D02*
X238506Y450850D01*
X190246Y450850D01*
X192786Y455930D01*
X124206Y455930D02*
X121666Y450850D01*
X124206Y455930D02*
X114046Y455930D01*
X135636Y455930D02*
X138176Y450850D01*
X135636Y455930D02*
X124206Y455930D01*
X121666Y450850D02*
X138176Y450850D01*
X133096Y502158D02*
X114046Y502158D01*
X133096Y461518D02*
X178816Y461518D01*
X114046Y461518D02*
X114046Y502158D01*
X114046Y461518D02*
X114046Y455930D01*
X114046Y511556D02*
X133096Y511556D01*
X114046Y511556D02*
X114046Y502158D01*
X133096Y552196D02*
X178816Y552196D01*
X114046Y552196D02*
X114046Y557530D01*
X114046Y552196D02*
X114046Y511556D01*
X133096Y502158D02*
X133096Y461518D01*
X133096Y502158D02*
X178816Y502158D01*
X133096Y461518D02*
X114046Y461518D01*
X133096Y511556D02*
X133096Y552196D01*
X133096Y511556D02*
X178816Y511556D01*
X133096Y552196D02*
X114046Y552196D01*
X139446Y465328D02*
X171196Y465328D01*
X139446Y465328D02*
X139446Y498348D01*
X171196Y498348D01*
X171196Y515366D02*
X139446Y515366D01*
X139446Y548386D01*
X171196Y548386D01*
X182626Y557530D02*
X114046Y557530D01*
X182626Y557530D02*
X208026Y557530D01*
X192786Y455930D02*
X182626Y455930D01*
X135636Y455930D01*
X208026Y455930D02*
X208026Y557530D01*
X238506Y557530D01*
X208026Y455930D02*
X192786Y455930D01*
X210566Y502158D02*
X235966Y502158D01*
X235966Y461518D01*
X210566Y461518D01*
X210566Y502158D01*
X210566Y511556D02*
X235966Y511556D01*
X210566Y511556D02*
X210566Y552196D01*
X235966Y552196D01*
X235966Y511556D01*
X226821Y466599D02*
X226696Y466489D01*
X226569Y466383D01*
X226439Y466279D01*
X226306Y466179D01*
X226172Y466082D01*
X226034Y465988D01*
X225895Y465898D01*
X225753Y465811D01*
X225610Y465727D01*
X225464Y465647D01*
X225316Y465571D01*
X225167Y465498D01*
X225016Y465429D01*
X224863Y465364D01*
X224709Y465302D01*
X224553Y465244D01*
X224396Y465190D01*
X224237Y465140D01*
X224078Y465093D01*
X223917Y465051D01*
X223756Y465012D01*
X223593Y464977D01*
X223430Y464947D01*
X223266Y464920D01*
X223101Y464897D01*
X222936Y464879D01*
X222770Y464864D01*
X222605Y464853D01*
X222438Y464847D01*
X222272Y464844D01*
X222106Y464845D01*
X221940Y464851D01*
X221774Y464861D01*
X221609Y464874D01*
X221443Y464892D01*
X221278Y464913D01*
X221114Y464939D01*
X220951Y464968D01*
X220788Y465002D01*
X220626Y465039D01*
X220465Y465081D01*
X220305Y465126D01*
X220147Y465175D01*
X219989Y465228D01*
X219833Y465285D01*
X219678Y465346D01*
X219525Y465410D01*
X219373Y465478D01*
X219223Y465550D01*
X219075Y465626D01*
X218929Y465705D01*
X218785Y465787D01*
X218643Y465873D01*
X218503Y465962D01*
X218365Y466055D01*
X218229Y466151D01*
X218096Y466251D01*
X217965Y466353D01*
X217837Y466459D01*
X217711Y466568D01*
X217589Y466680D01*
X217468Y466794D01*
X217351Y466912D01*
X217237Y467033D01*
X217125Y467156D01*
X217465Y466692D02*
X217114Y467173D01*
X216774Y467662D01*
X216446Y468160D01*
X216131Y468665D01*
X215828Y469178D01*
X215538Y469698D01*
X215260Y470225D01*
X214996Y470758D01*
X214744Y471298D01*
X214506Y471844D01*
X214281Y472395D01*
X214070Y472952D01*
X213872Y473514D01*
X213688Y474080D01*
X213518Y474651D01*
X213362Y475226D01*
X213220Y475804D01*
X213092Y476386D01*
X212979Y476970D01*
X212879Y477558D01*
X212795Y478147D01*
X212724Y478738D01*
X212668Y479331D01*
X212626Y479925D01*
X212599Y480520D01*
X212587Y481116D01*
X212589Y481711D01*
X212606Y482307D01*
X212637Y482901D01*
X212682Y483495D01*
X212742Y484088D01*
X212817Y484678D01*
X212906Y485267D01*
X213009Y485854D01*
X213127Y486438D01*
X213258Y487018D01*
X213404Y487596D01*
X213564Y488169D01*
X213738Y488739D01*
X213926Y489304D01*
X214128Y489865D01*
X214343Y490420D01*
X214571Y490970D01*
X214813Y491514D01*
X215069Y492052D01*
X215337Y492584D01*
X215618Y493109D01*
X215912Y493627D01*
X216218Y494137D01*
X216537Y494640D01*
X216868Y495136D01*
X217211Y495622D01*
X217566Y496101D01*
X217932Y496570D01*
X226314Y498094D02*
X226698Y497775D01*
X227074Y497447D01*
X227442Y497110D01*
X227802Y496764D01*
X228154Y496410D01*
X228497Y496047D01*
X228830Y495676D01*
X229155Y495297D01*
X229471Y494910D01*
X229777Y494515D01*
X230073Y494114D01*
X230360Y493705D01*
X230636Y493290D01*
X230902Y492867D01*
X231158Y492439D01*
X231404Y492004D01*
X231639Y491564D01*
X231863Y491118D01*
X232077Y490667D01*
X232279Y490211D01*
X232470Y489750D01*
X232650Y489284D01*
X232819Y488814D01*
X232976Y488340D01*
X233122Y487863D01*
X233256Y487382D01*
X233378Y486898D01*
X233489Y486412D01*
X233588Y485922D01*
X233675Y485431D01*
X233750Y484937D01*
X233813Y484442D01*
X233863Y483946D01*
X233902Y483448D01*
X233929Y482950D01*
X233944Y482451D01*
X233947Y481951D01*
X233937Y481452D01*
X233915Y480954D01*
X233882Y480456D01*
X233836Y479959D01*
X233778Y479463D01*
X233709Y478969D01*
X233627Y478476D01*
X233533Y477986D01*
X233428Y477498D01*
X233310Y477013D01*
X233181Y476531D01*
X233041Y476052D01*
X232888Y475576D01*
X232725Y475105D01*
X232550Y474638D01*
X232363Y474174D01*
X232166Y473716D01*
X231957Y473263D01*
X231737Y472814D01*
X231507Y472372D01*
X231266Y471934D01*
X231015Y471503D01*
X230753Y471078D01*
X230480Y470660D01*
X230198Y470248D01*
X229906Y469844D01*
X229604Y469446D01*
X229293Y469056D01*
X228972Y468673D01*
X228642Y468299D01*
X228303Y467932D01*
X227956Y467574D01*
X227599Y467225D01*
X227235Y466884D01*
X226862Y466552D01*
X217573Y496149D02*
X217648Y496281D01*
X217727Y496411D01*
X217809Y496539D01*
X217895Y496664D01*
X217983Y496788D01*
X218075Y496909D01*
X218170Y497028D01*
X218268Y497144D01*
X218368Y497258D01*
X218472Y497369D01*
X218578Y497477D01*
X218688Y497583D01*
X218800Y497686D01*
X218914Y497786D01*
X219031Y497882D01*
X219150Y497976D01*
X219272Y498067D01*
X219396Y498155D01*
X219523Y498239D01*
X219651Y498321D01*
X219781Y498399D01*
X219914Y498473D01*
X220048Y498544D01*
X220184Y498612D01*
X220322Y498676D01*
X220461Y498737D01*
X220602Y498794D01*
X220744Y498847D01*
X220888Y498897D01*
X221032Y498943D01*
X221178Y498985D01*
X221325Y499024D01*
X221473Y499058D01*
X221622Y499089D01*
X221771Y499117D01*
X221922Y499140D01*
X222072Y499159D01*
X222223Y499175D01*
X222375Y499187D01*
X222527Y499195D01*
X222678Y499198D01*
X222830Y499199D01*
X222982Y499195D01*
X223134Y499187D01*
X223285Y499175D01*
X223437Y499160D01*
X223587Y499141D01*
X223737Y499117D01*
X223887Y499090D01*
X224036Y499060D01*
X224184Y499025D01*
X224331Y498986D01*
X224477Y498944D01*
X224621Y498898D01*
X224765Y498849D01*
X224907Y498795D01*
X225048Y498739D01*
X225188Y498678D01*
X225325Y498614D01*
X225461Y498547D01*
X225596Y498476D01*
X225728Y498401D01*
X225859Y498323D01*
X225987Y498242D01*
X226114Y498158D01*
X226238Y498070D01*
X226360Y497980D01*
X226479Y497886D01*
X226596Y497789D01*
X226711Y497689D01*
X226823Y497586D01*
X220726Y498094D02*
X227076Y467614D01*
X225806Y466344D02*
X219456Y496824D01*
X217125Y517194D02*
X217237Y517071D01*
X217351Y516950D01*
X217468Y516832D01*
X217589Y516718D01*
X217711Y516606D01*
X217837Y516497D01*
X217965Y516391D01*
X218096Y516289D01*
X218229Y516189D01*
X218365Y516093D01*
X218503Y516000D01*
X218643Y515911D01*
X218785Y515825D01*
X218929Y515743D01*
X219075Y515664D01*
X219223Y515588D01*
X219373Y515516D01*
X219525Y515448D01*
X219678Y515384D01*
X219833Y515323D01*
X219989Y515266D01*
X220147Y515213D01*
X220305Y515164D01*
X220465Y515119D01*
X220626Y515077D01*
X220788Y515040D01*
X220951Y515006D01*
X221114Y514977D01*
X221278Y514951D01*
X221443Y514930D01*
X221609Y514912D01*
X221774Y514899D01*
X221940Y514889D01*
X222106Y514883D01*
X222272Y514882D01*
X222438Y514885D01*
X222605Y514891D01*
X222770Y514902D01*
X222936Y514917D01*
X223101Y514935D01*
X223266Y514958D01*
X223430Y514985D01*
X223593Y515015D01*
X223756Y515050D01*
X223917Y515089D01*
X224078Y515131D01*
X224237Y515178D01*
X224396Y515228D01*
X224553Y515282D01*
X224709Y515340D01*
X224863Y515402D01*
X225016Y515467D01*
X225167Y515536D01*
X225316Y515609D01*
X225464Y515685D01*
X225610Y515765D01*
X225753Y515849D01*
X225895Y515936D01*
X226034Y516026D01*
X226172Y516120D01*
X226306Y516217D01*
X226439Y516317D01*
X226569Y516421D01*
X226696Y516527D01*
X226821Y516637D01*
X217464Y516730D02*
X217112Y517211D01*
X216773Y517700D01*
X216445Y518197D01*
X216130Y518702D01*
X215827Y519215D01*
X215536Y519735D01*
X215259Y520262D01*
X214994Y520796D01*
X214743Y521335D01*
X214505Y521881D01*
X214280Y522433D01*
X214068Y522990D01*
X213871Y523551D01*
X213687Y524118D01*
X213517Y524689D01*
X213361Y525263D01*
X213219Y525842D01*
X213091Y526423D01*
X212978Y527008D01*
X212878Y527595D01*
X212793Y528185D01*
X212723Y528776D01*
X212667Y529369D01*
X212625Y529963D01*
X212598Y530558D01*
X212586Y531154D01*
X212588Y531749D01*
X212605Y532344D01*
X212636Y532939D01*
X212681Y533533D01*
X212741Y534125D01*
X212816Y534716D01*
X212905Y535305D01*
X213008Y535892D01*
X213126Y536476D01*
X213258Y537056D01*
X213404Y537634D01*
X213564Y538207D01*
X213738Y538777D01*
X213925Y539342D01*
X214127Y539903D01*
X214342Y540458D01*
X214571Y541008D01*
X214813Y541552D01*
X215068Y542090D01*
X215336Y542622D01*
X215617Y543147D01*
X215911Y543665D01*
X216218Y544175D01*
X216537Y544678D01*
X216868Y545174D01*
X217211Y545660D01*
X217565Y546139D01*
X217932Y546608D01*
X226314Y548132D02*
X226698Y547813D01*
X227075Y547485D01*
X227443Y547148D01*
X227803Y546802D01*
X228154Y546448D01*
X228497Y546085D01*
X228831Y545714D01*
X229156Y545335D01*
X229471Y544948D01*
X229778Y544554D01*
X230074Y544152D01*
X230360Y543743D01*
X230637Y543328D01*
X230903Y542906D01*
X231160Y542477D01*
X231405Y542042D01*
X231640Y541602D01*
X231865Y541156D01*
X232078Y540705D01*
X232280Y540248D01*
X232472Y539787D01*
X232652Y539322D01*
X232820Y538852D01*
X232978Y538378D01*
X233123Y537901D01*
X233258Y537420D01*
X233380Y536936D01*
X233491Y536449D01*
X233589Y535960D01*
X233676Y535468D01*
X233751Y534975D01*
X233814Y534480D01*
X233865Y533983D01*
X233904Y533485D01*
X233931Y532987D01*
X233946Y532488D01*
X233949Y531989D01*
X233939Y531490D01*
X233918Y530991D01*
X233884Y530493D01*
X233838Y529996D01*
X233780Y529500D01*
X233711Y529006D01*
X233629Y528513D01*
X233535Y528023D01*
X233430Y527535D01*
X233313Y527050D01*
X233184Y526567D01*
X233043Y526088D01*
X232891Y525613D01*
X232727Y525142D01*
X232552Y524674D01*
X232366Y524211D01*
X232168Y523752D01*
X231959Y523299D01*
X231740Y522851D01*
X231510Y522408D01*
X231269Y521971D01*
X231017Y521539D01*
X230755Y521114D01*
X230483Y520696D01*
X230201Y520284D01*
X229909Y519879D01*
X229607Y519482D01*
X229295Y519092D01*
X228975Y518709D01*
X228645Y518335D01*
X228306Y517968D01*
X227958Y517610D01*
X227602Y517260D01*
X227237Y516919D01*
X226864Y516587D01*
X217573Y546187D02*
X217648Y546319D01*
X217727Y546449D01*
X217809Y546577D01*
X217895Y546702D01*
X217983Y546826D01*
X218075Y546947D01*
X218170Y547066D01*
X218268Y547182D01*
X218368Y547296D01*
X218472Y547407D01*
X218578Y547515D01*
X218688Y547621D01*
X218800Y547724D01*
X218914Y547824D01*
X219031Y547920D01*
X219150Y548014D01*
X219272Y548105D01*
X219396Y548193D01*
X219523Y548277D01*
X219651Y548359D01*
X219781Y548437D01*
X219914Y548511D01*
X220048Y548582D01*
X220184Y548650D01*
X220322Y548714D01*
X220461Y548775D01*
X220602Y548832D01*
X220744Y548885D01*
X220888Y548935D01*
X221032Y548981D01*
X221178Y549023D01*
X221325Y549062D01*
X221473Y549096D01*
X221622Y549127D01*
X221771Y549155D01*
X221922Y549178D01*
X222072Y549197D01*
X222223Y549213D01*
X222375Y549225D01*
X222527Y549233D01*
X222678Y549236D01*
X222830Y549237D01*
X222982Y549233D01*
X223134Y549225D01*
X223285Y549213D01*
X223437Y549198D01*
X223587Y549179D01*
X223737Y549155D01*
X223887Y549128D01*
X224036Y549098D01*
X224184Y549063D01*
X224331Y549024D01*
X224477Y548982D01*
X224621Y548936D01*
X224765Y548887D01*
X224907Y548833D01*
X225048Y548777D01*
X225188Y548716D01*
X225325Y548652D01*
X225461Y548585D01*
X225596Y548514D01*
X225728Y548439D01*
X225859Y548361D01*
X225987Y548280D01*
X226114Y548196D01*
X226238Y548108D01*
X226360Y548018D01*
X226479Y547924D01*
X226596Y547827D01*
X226711Y547727D01*
X226823Y547624D01*
X220726Y548132D02*
X227076Y517652D01*
X225806Y516382D02*
X219456Y546862D01*
X178816Y548386D02*
X178816Y552196D01*
X178816Y515366D02*
X178816Y511556D01*
X182626Y548386D02*
X182626Y557530D01*
X182626Y515366D02*
X182626Y498348D01*
X182626Y465328D02*
X182626Y455930D01*
X178816Y461518D02*
X178816Y465328D01*
X178816Y498348D02*
X178816Y502158D01*
D11*
X192151Y544703D02*
X189611Y547878D01*
X201041Y547878D01*
X201041Y544703D02*
X201041Y551053D01*
X192469Y500254D02*
X192365Y500252D01*
X192260Y500246D01*
X192156Y500237D01*
X192053Y500224D01*
X191950Y500206D01*
X191848Y500186D01*
X191746Y500161D01*
X191646Y500133D01*
X191546Y500101D01*
X191448Y500065D01*
X191351Y500026D01*
X191256Y499984D01*
X191162Y499938D01*
X191070Y499888D01*
X190980Y499836D01*
X190892Y499780D01*
X190806Y499720D01*
X190722Y499658D01*
X190641Y499593D01*
X190562Y499525D01*
X190485Y499453D01*
X190412Y499380D01*
X190340Y499303D01*
X190272Y499224D01*
X190207Y499143D01*
X190145Y499059D01*
X190085Y498973D01*
X190029Y498885D01*
X189977Y498795D01*
X189927Y498703D01*
X189881Y498609D01*
X189839Y498514D01*
X189800Y498417D01*
X189764Y498319D01*
X189732Y498219D01*
X189704Y498119D01*
X189679Y498017D01*
X189659Y497915D01*
X189641Y497812D01*
X189628Y497709D01*
X189619Y497605D01*
X189613Y497500D01*
X189611Y497396D01*
X189613Y497278D01*
X189619Y497159D01*
X189628Y497041D01*
X189641Y496924D01*
X189659Y496807D01*
X189679Y496690D01*
X189704Y496574D01*
X189732Y496459D01*
X189765Y496346D01*
X189800Y496233D01*
X189840Y496121D01*
X189882Y496011D01*
X189929Y495902D01*
X189979Y495794D01*
X190032Y495689D01*
X190089Y495585D01*
X190149Y495483D01*
X190212Y495383D01*
X190279Y495285D01*
X190348Y495189D01*
X190421Y495096D01*
X190497Y495005D01*
X190575Y494916D01*
X190657Y494830D01*
X190741Y494747D01*
X190827Y494666D01*
X190917Y494589D01*
X191008Y494514D01*
X191102Y494442D01*
X191199Y494373D01*
X191297Y494308D01*
X191398Y494245D01*
X191501Y494186D01*
X191605Y494130D01*
X191711Y494078D01*
X191819Y494029D01*
X191928Y493984D01*
X192039Y493942D01*
X192151Y493904D01*
X194691Y499301D02*
X194616Y499377D01*
X194537Y499452D01*
X194456Y499523D01*
X194372Y499592D01*
X194286Y499657D01*
X194198Y499719D01*
X194108Y499779D01*
X194016Y499835D01*
X193921Y499888D01*
X193825Y499937D01*
X193727Y499983D01*
X193628Y500026D01*
X193527Y500065D01*
X193425Y500100D01*
X193322Y500132D01*
X193218Y500160D01*
X193113Y500185D01*
X193006Y500206D01*
X192900Y500223D01*
X192793Y500236D01*
X192685Y500245D01*
X192577Y500251D01*
X192469Y500253D01*
X194691Y499301D02*
X201041Y493903D01*
X201041Y500253D01*
D12*
X257175Y529199D02*
X273177Y518531D01*
X273177Y529199D02*
X257175Y518531D01*
X273177Y535051D02*
X273177Y540385D01*
X273175Y540501D01*
X273169Y540618D01*
X273160Y540734D01*
X273147Y540849D01*
X273130Y540964D01*
X273109Y541079D01*
X273084Y541192D01*
X273056Y541305D01*
X273024Y541417D01*
X272988Y541528D01*
X272949Y541638D01*
X272906Y541746D01*
X272860Y541853D01*
X272810Y541958D01*
X272757Y542061D01*
X272701Y542163D01*
X272641Y542263D01*
X272578Y542361D01*
X272511Y542456D01*
X272442Y542550D01*
X272370Y542641D01*
X272295Y542730D01*
X272216Y542816D01*
X272135Y542899D01*
X272052Y542980D01*
X271966Y543059D01*
X271877Y543134D01*
X271786Y543206D01*
X271692Y543275D01*
X271597Y543342D01*
X271499Y543405D01*
X271399Y543465D01*
X271297Y543521D01*
X271194Y543574D01*
X271089Y543624D01*
X270982Y543670D01*
X270874Y543713D01*
X270764Y543752D01*
X270653Y543788D01*
X270541Y543820D01*
X270428Y543848D01*
X270315Y543873D01*
X270200Y543894D01*
X270085Y543911D01*
X269970Y543924D01*
X269854Y543933D01*
X269737Y543939D01*
X269621Y543941D01*
X267843Y543941D01*
X267727Y543939D01*
X267610Y543933D01*
X267494Y543924D01*
X267379Y543911D01*
X267264Y543894D01*
X267149Y543873D01*
X267036Y543848D01*
X266923Y543820D01*
X266811Y543788D01*
X266700Y543752D01*
X266590Y543713D01*
X266482Y543670D01*
X266375Y543624D01*
X266270Y543574D01*
X266167Y543521D01*
X266065Y543465D01*
X265965Y543405D01*
X265867Y543342D01*
X265772Y543275D01*
X265678Y543206D01*
X265587Y543134D01*
X265498Y543059D01*
X265412Y542980D01*
X265329Y542899D01*
X265248Y542816D01*
X265169Y542730D01*
X265094Y542641D01*
X265022Y542550D01*
X264953Y542456D01*
X264886Y542361D01*
X264823Y542263D01*
X264763Y542163D01*
X264707Y542061D01*
X264654Y541958D01*
X264604Y541853D01*
X264558Y541746D01*
X264515Y541638D01*
X264476Y541528D01*
X264440Y541417D01*
X264408Y541305D01*
X264380Y541192D01*
X264355Y541079D01*
X264334Y540964D01*
X264317Y540849D01*
X264304Y540734D01*
X264295Y540618D01*
X264289Y540501D01*
X264287Y540385D01*
X264287Y535051D01*
X257175Y535051D01*
X257175Y543941D01*
D10*
X347726Y703580D02*
X360426Y703580D01*
X366776Y697230D01*
X366776Y684530D01*
X360426Y678180D01*
X341376Y684530D02*
X341376Y697230D01*
X347726Y703580D01*
X341376Y684530D02*
X347726Y678180D01*
X360426Y678180D01*
X366776Y697230D02*
X373126Y703580D01*
X385826Y703580D01*
X392176Y697230D01*
X392176Y684530D01*
X385826Y678180D01*
X373126Y678180D01*
X366776Y684530D01*
D11*
X345059Y712343D02*
X345059Y721233D01*
X345059Y712343D02*
X345057Y712243D01*
X345051Y712144D01*
X345041Y712044D01*
X345028Y711946D01*
X345010Y711847D01*
X344989Y711750D01*
X344964Y711654D01*
X344935Y711558D01*
X344902Y711464D01*
X344866Y711371D01*
X344826Y711280D01*
X344782Y711190D01*
X344735Y711102D01*
X344685Y711016D01*
X344631Y710932D01*
X344574Y710850D01*
X344514Y710771D01*
X344450Y710693D01*
X344384Y710619D01*
X344315Y710547D01*
X344243Y710478D01*
X344169Y710412D01*
X344091Y710348D01*
X344012Y710288D01*
X343930Y710231D01*
X343846Y710177D01*
X343760Y710127D01*
X343672Y710080D01*
X343582Y710036D01*
X343491Y709996D01*
X343398Y709960D01*
X343304Y709927D01*
X343208Y709898D01*
X343112Y709873D01*
X343015Y709852D01*
X342916Y709834D01*
X342818Y709821D01*
X342718Y709811D01*
X342619Y709805D01*
X342519Y709803D01*
X341249Y709803D01*
X351039Y709803D02*
X351039Y721233D01*
X354214Y721233D01*
X354325Y721231D01*
X354435Y721225D01*
X354546Y721216D01*
X354656Y721202D01*
X354765Y721185D01*
X354874Y721164D01*
X354982Y721139D01*
X355089Y721110D01*
X355195Y721078D01*
X355300Y721042D01*
X355403Y721002D01*
X355505Y720959D01*
X355606Y720912D01*
X355705Y720861D01*
X355802Y720808D01*
X355896Y720751D01*
X355989Y720690D01*
X356080Y720627D01*
X356169Y720560D01*
X356255Y720490D01*
X356338Y720417D01*
X356420Y720342D01*
X356498Y720264D01*
X356573Y720182D01*
X356646Y720099D01*
X356716Y720013D01*
X356783Y719924D01*
X356846Y719833D01*
X356907Y719740D01*
X356964Y719645D01*
X357017Y719549D01*
X357068Y719450D01*
X357115Y719349D01*
X357158Y719247D01*
X357198Y719144D01*
X357234Y719039D01*
X357266Y718933D01*
X357295Y718826D01*
X357320Y718718D01*
X357341Y718609D01*
X357358Y718500D01*
X357372Y718390D01*
X357381Y718279D01*
X357387Y718169D01*
X357389Y718058D01*
X357387Y717947D01*
X357381Y717837D01*
X357372Y717726D01*
X357358Y717616D01*
X357341Y717507D01*
X357320Y717398D01*
X357295Y717290D01*
X357266Y717183D01*
X357234Y717077D01*
X357198Y716972D01*
X357158Y716869D01*
X357115Y716767D01*
X357068Y716666D01*
X357017Y716567D01*
X356964Y716471D01*
X356907Y716376D01*
X356846Y716283D01*
X356783Y716192D01*
X356716Y716103D01*
X356646Y716017D01*
X356573Y715934D01*
X356498Y715852D01*
X356420Y715774D01*
X356338Y715699D01*
X356255Y715626D01*
X356169Y715556D01*
X356080Y715489D01*
X355989Y715426D01*
X355896Y715365D01*
X355802Y715308D01*
X355705Y715255D01*
X355606Y715204D01*
X355505Y715157D01*
X355403Y715114D01*
X355300Y715074D01*
X355195Y715038D01*
X355089Y715006D01*
X354982Y714977D01*
X354874Y714952D01*
X354765Y714931D01*
X354656Y714914D01*
X354546Y714900D01*
X354435Y714891D01*
X354325Y714885D01*
X354214Y714883D01*
X351039Y714883D01*
X361898Y718693D02*
X365073Y721233D01*
X365073Y709803D01*
X361898Y709803D02*
X368248Y709803D01*
D10*
X492506Y703580D02*
X505206Y703580D01*
X511556Y697230D01*
X511556Y684530D01*
X505206Y678180D01*
X486156Y684530D02*
X486156Y697230D01*
X492506Y703580D01*
X486156Y684530D02*
X492506Y678180D01*
X505206Y678180D01*
X511556Y697230D02*
X517906Y703580D01*
X530606Y703580D01*
X536956Y697230D01*
X536956Y684530D01*
X530606Y678180D01*
X517906Y678180D01*
X511556Y684530D01*
D11*
X489839Y712343D02*
X489839Y721233D01*
X489839Y712343D02*
X489837Y712243D01*
X489831Y712144D01*
X489821Y712044D01*
X489808Y711946D01*
X489790Y711847D01*
X489769Y711750D01*
X489744Y711654D01*
X489715Y711558D01*
X489682Y711464D01*
X489646Y711371D01*
X489606Y711280D01*
X489562Y711190D01*
X489515Y711102D01*
X489465Y711016D01*
X489411Y710932D01*
X489354Y710850D01*
X489294Y710771D01*
X489230Y710693D01*
X489164Y710619D01*
X489095Y710547D01*
X489023Y710478D01*
X488949Y710412D01*
X488871Y710348D01*
X488792Y710288D01*
X488710Y710231D01*
X488626Y710177D01*
X488540Y710127D01*
X488452Y710080D01*
X488362Y710036D01*
X488271Y709996D01*
X488178Y709960D01*
X488084Y709927D01*
X487988Y709898D01*
X487892Y709873D01*
X487795Y709852D01*
X487696Y709834D01*
X487598Y709821D01*
X487498Y709811D01*
X487399Y709805D01*
X487299Y709803D01*
X486029Y709803D01*
X495819Y709803D02*
X495819Y721233D01*
X498994Y721233D01*
X499105Y721231D01*
X499215Y721225D01*
X499326Y721216D01*
X499436Y721202D01*
X499545Y721185D01*
X499654Y721164D01*
X499762Y721139D01*
X499869Y721110D01*
X499975Y721078D01*
X500080Y721042D01*
X500183Y721002D01*
X500285Y720959D01*
X500386Y720912D01*
X500485Y720861D01*
X500582Y720808D01*
X500676Y720751D01*
X500769Y720690D01*
X500860Y720627D01*
X500949Y720560D01*
X501035Y720490D01*
X501118Y720417D01*
X501200Y720342D01*
X501278Y720264D01*
X501353Y720182D01*
X501426Y720099D01*
X501496Y720013D01*
X501563Y719924D01*
X501626Y719833D01*
X501687Y719740D01*
X501744Y719645D01*
X501797Y719549D01*
X501848Y719450D01*
X501895Y719349D01*
X501938Y719247D01*
X501978Y719144D01*
X502014Y719039D01*
X502046Y718933D01*
X502075Y718826D01*
X502100Y718718D01*
X502121Y718609D01*
X502138Y718500D01*
X502152Y718390D01*
X502161Y718279D01*
X502167Y718169D01*
X502169Y718058D01*
X502167Y717947D01*
X502161Y717837D01*
X502152Y717726D01*
X502138Y717616D01*
X502121Y717507D01*
X502100Y717398D01*
X502075Y717290D01*
X502046Y717183D01*
X502014Y717077D01*
X501978Y716972D01*
X501938Y716869D01*
X501895Y716767D01*
X501848Y716666D01*
X501797Y716567D01*
X501744Y716471D01*
X501687Y716376D01*
X501626Y716283D01*
X501563Y716192D01*
X501496Y716103D01*
X501426Y716017D01*
X501353Y715934D01*
X501278Y715852D01*
X501200Y715774D01*
X501118Y715699D01*
X501035Y715626D01*
X500949Y715556D01*
X500860Y715489D01*
X500769Y715426D01*
X500676Y715365D01*
X500582Y715308D01*
X500485Y715255D01*
X500386Y715204D01*
X500285Y715157D01*
X500183Y715114D01*
X500080Y715074D01*
X499975Y715038D01*
X499869Y715006D01*
X499762Y714977D01*
X499654Y714952D01*
X499545Y714931D01*
X499436Y714914D01*
X499326Y714900D01*
X499215Y714891D01*
X499105Y714885D01*
X498994Y714883D01*
X495819Y714883D01*
X510170Y721234D02*
X510274Y721232D01*
X510379Y721226D01*
X510483Y721217D01*
X510586Y721204D01*
X510689Y721186D01*
X510791Y721166D01*
X510893Y721141D01*
X510993Y721113D01*
X511093Y721081D01*
X511191Y721045D01*
X511288Y721006D01*
X511383Y720964D01*
X511477Y720918D01*
X511569Y720868D01*
X511659Y720816D01*
X511747Y720760D01*
X511833Y720700D01*
X511917Y720638D01*
X511998Y720573D01*
X512077Y720505D01*
X512154Y720433D01*
X512227Y720360D01*
X512299Y720283D01*
X512367Y720204D01*
X512432Y720123D01*
X512494Y720039D01*
X512554Y719953D01*
X512610Y719865D01*
X512662Y719775D01*
X512712Y719683D01*
X512758Y719589D01*
X512800Y719494D01*
X512839Y719397D01*
X512875Y719299D01*
X512907Y719199D01*
X512935Y719099D01*
X512960Y718997D01*
X512980Y718895D01*
X512998Y718792D01*
X513011Y718689D01*
X513020Y718585D01*
X513026Y718480D01*
X513028Y718376D01*
X510170Y721233D02*
X510052Y721231D01*
X509933Y721225D01*
X509815Y721216D01*
X509698Y721203D01*
X509581Y721185D01*
X509464Y721165D01*
X509348Y721140D01*
X509233Y721112D01*
X509120Y721079D01*
X509007Y721044D01*
X508895Y721004D01*
X508785Y720962D01*
X508676Y720915D01*
X508568Y720865D01*
X508463Y720812D01*
X508359Y720755D01*
X508257Y720695D01*
X508157Y720632D01*
X508059Y720565D01*
X507963Y720496D01*
X507870Y720423D01*
X507779Y720347D01*
X507690Y720269D01*
X507604Y720187D01*
X507521Y720103D01*
X507440Y720017D01*
X507363Y719927D01*
X507288Y719836D01*
X507216Y719742D01*
X507147Y719645D01*
X507082Y719547D01*
X507019Y719446D01*
X506960Y719343D01*
X506904Y719239D01*
X506852Y719133D01*
X506803Y719025D01*
X506758Y718916D01*
X506716Y718805D01*
X506678Y718693D01*
X512076Y716154D02*
X512152Y716229D01*
X512227Y716308D01*
X512298Y716389D01*
X512367Y716473D01*
X512432Y716559D01*
X512494Y716647D01*
X512554Y716737D01*
X512610Y716829D01*
X512663Y716924D01*
X512712Y717020D01*
X512758Y717118D01*
X512801Y717217D01*
X512840Y717318D01*
X512875Y717420D01*
X512907Y717523D01*
X512935Y717627D01*
X512960Y717732D01*
X512981Y717839D01*
X512998Y717945D01*
X513011Y718052D01*
X513020Y718160D01*
X513026Y718268D01*
X513028Y718376D01*
X512075Y716153D02*
X506678Y709803D01*
X513028Y709803D01*
D10*
X637286Y703580D02*
X649986Y703580D01*
X656336Y697230D01*
X656336Y684530D01*
X649986Y678180D01*
X630936Y684530D02*
X630936Y697230D01*
X637286Y703580D01*
X630936Y684530D02*
X637286Y678180D01*
X649986Y678180D01*
X656336Y697230D02*
X662686Y703580D01*
X675386Y703580D01*
X681736Y697230D01*
X681736Y684530D01*
X675386Y678180D01*
X662686Y678180D01*
X656336Y684530D01*
D11*
X634619Y712343D02*
X634619Y721233D01*
X634619Y712343D02*
X634617Y712243D01*
X634611Y712144D01*
X634601Y712044D01*
X634588Y711946D01*
X634570Y711847D01*
X634549Y711750D01*
X634524Y711654D01*
X634495Y711558D01*
X634462Y711464D01*
X634426Y711371D01*
X634386Y711280D01*
X634342Y711190D01*
X634295Y711102D01*
X634245Y711016D01*
X634191Y710932D01*
X634134Y710850D01*
X634074Y710771D01*
X634010Y710693D01*
X633944Y710619D01*
X633875Y710547D01*
X633803Y710478D01*
X633729Y710412D01*
X633651Y710348D01*
X633572Y710288D01*
X633490Y710231D01*
X633406Y710177D01*
X633320Y710127D01*
X633232Y710080D01*
X633142Y710036D01*
X633051Y709996D01*
X632958Y709960D01*
X632864Y709927D01*
X632768Y709898D01*
X632672Y709873D01*
X632575Y709852D01*
X632476Y709834D01*
X632378Y709821D01*
X632278Y709811D01*
X632179Y709805D01*
X632079Y709803D01*
X630809Y709803D01*
X640599Y709803D02*
X640599Y721233D01*
X643774Y721233D01*
X643885Y721231D01*
X643995Y721225D01*
X644106Y721216D01*
X644216Y721202D01*
X644325Y721185D01*
X644434Y721164D01*
X644542Y721139D01*
X644649Y721110D01*
X644755Y721078D01*
X644860Y721042D01*
X644963Y721002D01*
X645065Y720959D01*
X645166Y720912D01*
X645265Y720861D01*
X645362Y720808D01*
X645456Y720751D01*
X645549Y720690D01*
X645640Y720627D01*
X645729Y720560D01*
X645815Y720490D01*
X645898Y720417D01*
X645980Y720342D01*
X646058Y720264D01*
X646133Y720182D01*
X646206Y720099D01*
X646276Y720013D01*
X646343Y719924D01*
X646406Y719833D01*
X646467Y719740D01*
X646524Y719645D01*
X646577Y719549D01*
X646628Y719450D01*
X646675Y719349D01*
X646718Y719247D01*
X646758Y719144D01*
X646794Y719039D01*
X646826Y718933D01*
X646855Y718826D01*
X646880Y718718D01*
X646901Y718609D01*
X646918Y718500D01*
X646932Y718390D01*
X646941Y718279D01*
X646947Y718169D01*
X646949Y718058D01*
X646947Y717947D01*
X646941Y717837D01*
X646932Y717726D01*
X646918Y717616D01*
X646901Y717507D01*
X646880Y717398D01*
X646855Y717290D01*
X646826Y717183D01*
X646794Y717077D01*
X646758Y716972D01*
X646718Y716869D01*
X646675Y716767D01*
X646628Y716666D01*
X646577Y716567D01*
X646524Y716471D01*
X646467Y716376D01*
X646406Y716283D01*
X646343Y716192D01*
X646276Y716103D01*
X646206Y716017D01*
X646133Y715934D01*
X646058Y715852D01*
X645980Y715774D01*
X645898Y715699D01*
X645815Y715626D01*
X645729Y715556D01*
X645640Y715489D01*
X645549Y715426D01*
X645456Y715365D01*
X645362Y715308D01*
X645265Y715255D01*
X645166Y715204D01*
X645065Y715157D01*
X644963Y715114D01*
X644860Y715074D01*
X644755Y715038D01*
X644649Y715006D01*
X644542Y714977D01*
X644434Y714952D01*
X644325Y714931D01*
X644216Y714914D01*
X644106Y714900D01*
X643995Y714891D01*
X643885Y714885D01*
X643774Y714883D01*
X640599Y714883D01*
X651458Y709803D02*
X654633Y709803D01*
X654744Y709805D01*
X654854Y709811D01*
X654965Y709820D01*
X655075Y709834D01*
X655184Y709851D01*
X655293Y709872D01*
X655401Y709897D01*
X655508Y709926D01*
X655614Y709958D01*
X655719Y709994D01*
X655822Y710034D01*
X655924Y710077D01*
X656025Y710124D01*
X656124Y710175D01*
X656221Y710228D01*
X656315Y710285D01*
X656408Y710346D01*
X656499Y710409D01*
X656588Y710476D01*
X656674Y710546D01*
X656757Y710619D01*
X656839Y710694D01*
X656917Y710772D01*
X656992Y710854D01*
X657065Y710937D01*
X657135Y711023D01*
X657202Y711112D01*
X657265Y711203D01*
X657326Y711296D01*
X657383Y711391D01*
X657436Y711487D01*
X657487Y711586D01*
X657534Y711687D01*
X657577Y711789D01*
X657617Y711892D01*
X657653Y711997D01*
X657685Y712103D01*
X657714Y712210D01*
X657739Y712318D01*
X657760Y712427D01*
X657777Y712536D01*
X657791Y712646D01*
X657800Y712757D01*
X657806Y712867D01*
X657808Y712978D01*
X657806Y713089D01*
X657800Y713199D01*
X657791Y713310D01*
X657777Y713420D01*
X657760Y713529D01*
X657739Y713638D01*
X657714Y713746D01*
X657685Y713853D01*
X657653Y713959D01*
X657617Y714064D01*
X657577Y714167D01*
X657534Y714269D01*
X657487Y714370D01*
X657436Y714469D01*
X657383Y714565D01*
X657326Y714660D01*
X657265Y714753D01*
X657202Y714844D01*
X657135Y714933D01*
X657065Y715019D01*
X656992Y715102D01*
X656917Y715184D01*
X656839Y715262D01*
X656757Y715337D01*
X656674Y715410D01*
X656588Y715480D01*
X656499Y715547D01*
X656408Y715610D01*
X656315Y715671D01*
X656221Y715728D01*
X656124Y715781D01*
X656025Y715832D01*
X655924Y715879D01*
X655822Y715922D01*
X655719Y715962D01*
X655614Y715998D01*
X655508Y716030D01*
X655401Y716059D01*
X655293Y716084D01*
X655184Y716105D01*
X655075Y716122D01*
X654965Y716136D01*
X654854Y716145D01*
X654744Y716151D01*
X654633Y716153D01*
X655268Y721233D02*
X651458Y721233D01*
X655268Y721233D02*
X655368Y721231D01*
X655467Y721225D01*
X655567Y721215D01*
X655665Y721202D01*
X655764Y721184D01*
X655861Y721163D01*
X655957Y721138D01*
X656053Y721109D01*
X656147Y721076D01*
X656240Y721040D01*
X656331Y721000D01*
X656421Y720956D01*
X656509Y720909D01*
X656595Y720859D01*
X656679Y720805D01*
X656761Y720748D01*
X656840Y720688D01*
X656918Y720624D01*
X656992Y720558D01*
X657064Y720489D01*
X657133Y720417D01*
X657199Y720343D01*
X657263Y720265D01*
X657323Y720186D01*
X657380Y720104D01*
X657434Y720020D01*
X657484Y719934D01*
X657531Y719846D01*
X657575Y719756D01*
X657615Y719665D01*
X657651Y719572D01*
X657684Y719478D01*
X657713Y719382D01*
X657738Y719286D01*
X657759Y719189D01*
X657777Y719090D01*
X657790Y718992D01*
X657800Y718892D01*
X657806Y718793D01*
X657808Y718693D01*
X657806Y718593D01*
X657800Y718494D01*
X657790Y718394D01*
X657777Y718296D01*
X657759Y718197D01*
X657738Y718100D01*
X657713Y718004D01*
X657684Y717908D01*
X657651Y717814D01*
X657615Y717721D01*
X657575Y717630D01*
X657531Y717540D01*
X657484Y717452D01*
X657434Y717366D01*
X657380Y717282D01*
X657323Y717200D01*
X657263Y717121D01*
X657199Y717043D01*
X657133Y716969D01*
X657064Y716897D01*
X656992Y716828D01*
X656918Y716762D01*
X656840Y716698D01*
X656761Y716638D01*
X656679Y716581D01*
X656595Y716527D01*
X656509Y716477D01*
X656421Y716430D01*
X656331Y716386D01*
X656240Y716346D01*
X656147Y716310D01*
X656053Y716277D01*
X655957Y716248D01*
X655861Y716223D01*
X655764Y716202D01*
X655665Y716184D01*
X655567Y716171D01*
X655467Y716161D01*
X655368Y716155D01*
X655268Y716153D01*
X652728Y716153D01*
D10*
X782066Y703580D02*
X794766Y703580D01*
X801116Y697230D01*
X801116Y684530D01*
X794766Y678180D01*
X775716Y684530D02*
X775716Y697230D01*
X782066Y703580D01*
X775716Y684530D02*
X782066Y678180D01*
X794766Y678180D01*
X801116Y697230D02*
X807466Y703580D01*
X820166Y703580D01*
X826516Y697230D01*
X826516Y684530D01*
X820166Y678180D01*
X807466Y678180D01*
X801116Y684530D01*
D11*
X779399Y712343D02*
X779399Y721233D01*
X779399Y712343D02*
X779397Y712243D01*
X779391Y712144D01*
X779381Y712044D01*
X779368Y711946D01*
X779350Y711847D01*
X779329Y711750D01*
X779304Y711654D01*
X779275Y711558D01*
X779242Y711464D01*
X779206Y711371D01*
X779166Y711280D01*
X779122Y711190D01*
X779075Y711102D01*
X779025Y711016D01*
X778971Y710932D01*
X778914Y710850D01*
X778854Y710771D01*
X778790Y710693D01*
X778724Y710619D01*
X778655Y710547D01*
X778583Y710478D01*
X778509Y710412D01*
X778431Y710348D01*
X778352Y710288D01*
X778270Y710231D01*
X778186Y710177D01*
X778100Y710127D01*
X778012Y710080D01*
X777922Y710036D01*
X777831Y709996D01*
X777738Y709960D01*
X777644Y709927D01*
X777548Y709898D01*
X777452Y709873D01*
X777355Y709852D01*
X777256Y709834D01*
X777158Y709821D01*
X777058Y709811D01*
X776959Y709805D01*
X776859Y709803D01*
X775589Y709803D01*
X785379Y709803D02*
X785379Y721233D01*
X788554Y721233D01*
X788665Y721231D01*
X788775Y721225D01*
X788886Y721216D01*
X788996Y721202D01*
X789105Y721185D01*
X789214Y721164D01*
X789322Y721139D01*
X789429Y721110D01*
X789535Y721078D01*
X789640Y721042D01*
X789743Y721002D01*
X789845Y720959D01*
X789946Y720912D01*
X790045Y720861D01*
X790142Y720808D01*
X790236Y720751D01*
X790329Y720690D01*
X790420Y720627D01*
X790509Y720560D01*
X790595Y720490D01*
X790678Y720417D01*
X790760Y720342D01*
X790838Y720264D01*
X790913Y720182D01*
X790986Y720099D01*
X791056Y720013D01*
X791123Y719924D01*
X791186Y719833D01*
X791247Y719740D01*
X791304Y719645D01*
X791357Y719549D01*
X791408Y719450D01*
X791455Y719349D01*
X791498Y719247D01*
X791538Y719144D01*
X791574Y719039D01*
X791606Y718933D01*
X791635Y718826D01*
X791660Y718718D01*
X791681Y718609D01*
X791698Y718500D01*
X791712Y718390D01*
X791721Y718279D01*
X791727Y718169D01*
X791729Y718058D01*
X791727Y717947D01*
X791721Y717837D01*
X791712Y717726D01*
X791698Y717616D01*
X791681Y717507D01*
X791660Y717398D01*
X791635Y717290D01*
X791606Y717183D01*
X791574Y717077D01*
X791538Y716972D01*
X791498Y716869D01*
X791455Y716767D01*
X791408Y716666D01*
X791357Y716567D01*
X791304Y716471D01*
X791247Y716376D01*
X791186Y716283D01*
X791123Y716192D01*
X791056Y716103D01*
X790986Y716017D01*
X790913Y715934D01*
X790838Y715852D01*
X790760Y715774D01*
X790678Y715699D01*
X790595Y715626D01*
X790509Y715556D01*
X790420Y715489D01*
X790329Y715426D01*
X790236Y715365D01*
X790142Y715308D01*
X790045Y715255D01*
X789946Y715204D01*
X789845Y715157D01*
X789743Y715114D01*
X789640Y715074D01*
X789535Y715038D01*
X789429Y715006D01*
X789322Y714977D01*
X789214Y714952D01*
X789105Y714931D01*
X788996Y714914D01*
X788886Y714900D01*
X788775Y714891D01*
X788665Y714885D01*
X788554Y714883D01*
X785379Y714883D01*
X796238Y712343D02*
X798778Y721233D01*
X796238Y712343D02*
X802588Y712343D01*
X800683Y714883D02*
X800683Y709803D01*
D10*
X926846Y703580D02*
X939546Y703580D01*
X945896Y697230D01*
X945896Y684530D01*
X939546Y678180D01*
X920496Y684530D02*
X920496Y697230D01*
X926846Y703580D01*
X920496Y684530D02*
X926846Y678180D01*
X939546Y678180D01*
X945896Y697230D02*
X952246Y703580D01*
X964946Y703580D01*
X971296Y697230D01*
X971296Y684530D01*
X964946Y678180D01*
X952246Y678180D01*
X945896Y684530D01*
D11*
X924179Y712343D02*
X924179Y721233D01*
X924179Y712343D02*
X924177Y712243D01*
X924171Y712144D01*
X924161Y712044D01*
X924148Y711946D01*
X924130Y711847D01*
X924109Y711750D01*
X924084Y711654D01*
X924055Y711558D01*
X924022Y711464D01*
X923986Y711371D01*
X923946Y711280D01*
X923902Y711190D01*
X923855Y711102D01*
X923805Y711016D01*
X923751Y710932D01*
X923694Y710850D01*
X923634Y710771D01*
X923570Y710693D01*
X923504Y710619D01*
X923435Y710547D01*
X923363Y710478D01*
X923289Y710412D01*
X923211Y710348D01*
X923132Y710288D01*
X923050Y710231D01*
X922966Y710177D01*
X922880Y710127D01*
X922792Y710080D01*
X922702Y710036D01*
X922611Y709996D01*
X922518Y709960D01*
X922424Y709927D01*
X922328Y709898D01*
X922232Y709873D01*
X922135Y709852D01*
X922036Y709834D01*
X921938Y709821D01*
X921838Y709811D01*
X921739Y709805D01*
X921639Y709803D01*
X920369Y709803D01*
X930159Y709803D02*
X930159Y721233D01*
X933334Y721233D01*
X933445Y721231D01*
X933555Y721225D01*
X933666Y721216D01*
X933776Y721202D01*
X933885Y721185D01*
X933994Y721164D01*
X934102Y721139D01*
X934209Y721110D01*
X934315Y721078D01*
X934420Y721042D01*
X934523Y721002D01*
X934625Y720959D01*
X934726Y720912D01*
X934825Y720861D01*
X934922Y720808D01*
X935016Y720751D01*
X935109Y720690D01*
X935200Y720627D01*
X935289Y720560D01*
X935375Y720490D01*
X935458Y720417D01*
X935540Y720342D01*
X935618Y720264D01*
X935693Y720182D01*
X935766Y720099D01*
X935836Y720013D01*
X935903Y719924D01*
X935966Y719833D01*
X936027Y719740D01*
X936084Y719645D01*
X936137Y719549D01*
X936188Y719450D01*
X936235Y719349D01*
X936278Y719247D01*
X936318Y719144D01*
X936354Y719039D01*
X936386Y718933D01*
X936415Y718826D01*
X936440Y718718D01*
X936461Y718609D01*
X936478Y718500D01*
X936492Y718390D01*
X936501Y718279D01*
X936507Y718169D01*
X936509Y718058D01*
X936507Y717947D01*
X936501Y717837D01*
X936492Y717726D01*
X936478Y717616D01*
X936461Y717507D01*
X936440Y717398D01*
X936415Y717290D01*
X936386Y717183D01*
X936354Y717077D01*
X936318Y716972D01*
X936278Y716869D01*
X936235Y716767D01*
X936188Y716666D01*
X936137Y716567D01*
X936084Y716471D01*
X936027Y716376D01*
X935966Y716283D01*
X935903Y716192D01*
X935836Y716103D01*
X935766Y716017D01*
X935693Y715934D01*
X935618Y715852D01*
X935540Y715774D01*
X935458Y715699D01*
X935375Y715626D01*
X935289Y715556D01*
X935200Y715489D01*
X935109Y715426D01*
X935016Y715365D01*
X934922Y715308D01*
X934825Y715255D01*
X934726Y715204D01*
X934625Y715157D01*
X934523Y715114D01*
X934420Y715074D01*
X934315Y715038D01*
X934209Y715006D01*
X934102Y714977D01*
X933994Y714952D01*
X933885Y714931D01*
X933776Y714914D01*
X933666Y714900D01*
X933555Y714891D01*
X933445Y714885D01*
X933334Y714883D01*
X930159Y714883D01*
X941018Y709803D02*
X944828Y709803D01*
X944928Y709805D01*
X945027Y709811D01*
X945127Y709821D01*
X945225Y709834D01*
X945324Y709852D01*
X945421Y709873D01*
X945517Y709898D01*
X945613Y709927D01*
X945707Y709960D01*
X945800Y709996D01*
X945891Y710036D01*
X945981Y710080D01*
X946069Y710127D01*
X946155Y710177D01*
X946239Y710231D01*
X946321Y710288D01*
X946400Y710348D01*
X946478Y710412D01*
X946552Y710478D01*
X946624Y710547D01*
X946693Y710619D01*
X946759Y710693D01*
X946823Y710771D01*
X946883Y710850D01*
X946940Y710932D01*
X946994Y711016D01*
X947044Y711102D01*
X947091Y711190D01*
X947135Y711280D01*
X947175Y711371D01*
X947211Y711464D01*
X947244Y711558D01*
X947273Y711654D01*
X947298Y711750D01*
X947319Y711847D01*
X947337Y711946D01*
X947350Y712044D01*
X947360Y712144D01*
X947366Y712243D01*
X947368Y712343D01*
X947368Y713613D01*
X947366Y713713D01*
X947360Y713812D01*
X947350Y713912D01*
X947337Y714010D01*
X947319Y714109D01*
X947298Y714206D01*
X947273Y714302D01*
X947244Y714398D01*
X947211Y714492D01*
X947175Y714585D01*
X947135Y714676D01*
X947091Y714766D01*
X947044Y714854D01*
X946994Y714940D01*
X946940Y715024D01*
X946883Y715106D01*
X946823Y715185D01*
X946759Y715263D01*
X946693Y715337D01*
X946624Y715409D01*
X946552Y715478D01*
X946478Y715544D01*
X946400Y715608D01*
X946321Y715668D01*
X946239Y715725D01*
X946155Y715779D01*
X946069Y715829D01*
X945981Y715876D01*
X945891Y715920D01*
X945800Y715960D01*
X945707Y715996D01*
X945613Y716029D01*
X945517Y716058D01*
X945421Y716083D01*
X945324Y716104D01*
X945225Y716122D01*
X945127Y716135D01*
X945027Y716145D01*
X944928Y716151D01*
X944828Y716153D01*
X941018Y716153D01*
X941018Y721233D01*
X947368Y721233D01*
D10*
X1071626Y703580D02*
X1084326Y703580D01*
X1090676Y697230D01*
X1090676Y684530D01*
X1084326Y678180D01*
X1065276Y684530D02*
X1065276Y697230D01*
X1071626Y703580D01*
X1065276Y684530D02*
X1071626Y678180D01*
X1084326Y678180D01*
X1090676Y697230D02*
X1097026Y703580D01*
X1109726Y703580D01*
X1116076Y697230D01*
X1116076Y684530D01*
X1109726Y678180D01*
X1097026Y678180D01*
X1090676Y684530D01*
D11*
X1068959Y712343D02*
X1068959Y721233D01*
X1068959Y712343D02*
X1068957Y712243D01*
X1068951Y712144D01*
X1068941Y712044D01*
X1068928Y711946D01*
X1068910Y711847D01*
X1068889Y711750D01*
X1068864Y711654D01*
X1068835Y711558D01*
X1068802Y711464D01*
X1068766Y711371D01*
X1068726Y711280D01*
X1068682Y711190D01*
X1068635Y711102D01*
X1068585Y711016D01*
X1068531Y710932D01*
X1068474Y710850D01*
X1068414Y710771D01*
X1068350Y710693D01*
X1068284Y710619D01*
X1068215Y710547D01*
X1068143Y710478D01*
X1068069Y710412D01*
X1067991Y710348D01*
X1067912Y710288D01*
X1067830Y710231D01*
X1067746Y710177D01*
X1067660Y710127D01*
X1067572Y710080D01*
X1067482Y710036D01*
X1067391Y709996D01*
X1067298Y709960D01*
X1067204Y709927D01*
X1067108Y709898D01*
X1067012Y709873D01*
X1066915Y709852D01*
X1066816Y709834D01*
X1066718Y709821D01*
X1066618Y709811D01*
X1066519Y709805D01*
X1066419Y709803D01*
X1065149Y709803D01*
X1074939Y709803D02*
X1074939Y721233D01*
X1078114Y721233D01*
X1078225Y721231D01*
X1078335Y721225D01*
X1078446Y721216D01*
X1078556Y721202D01*
X1078665Y721185D01*
X1078774Y721164D01*
X1078882Y721139D01*
X1078989Y721110D01*
X1079095Y721078D01*
X1079200Y721042D01*
X1079303Y721002D01*
X1079405Y720959D01*
X1079506Y720912D01*
X1079605Y720861D01*
X1079702Y720808D01*
X1079796Y720751D01*
X1079889Y720690D01*
X1079980Y720627D01*
X1080069Y720560D01*
X1080155Y720490D01*
X1080238Y720417D01*
X1080320Y720342D01*
X1080398Y720264D01*
X1080473Y720182D01*
X1080546Y720099D01*
X1080616Y720013D01*
X1080683Y719924D01*
X1080746Y719833D01*
X1080807Y719740D01*
X1080864Y719645D01*
X1080917Y719549D01*
X1080968Y719450D01*
X1081015Y719349D01*
X1081058Y719247D01*
X1081098Y719144D01*
X1081134Y719039D01*
X1081166Y718933D01*
X1081195Y718826D01*
X1081220Y718718D01*
X1081241Y718609D01*
X1081258Y718500D01*
X1081272Y718390D01*
X1081281Y718279D01*
X1081287Y718169D01*
X1081289Y718058D01*
X1081287Y717947D01*
X1081281Y717837D01*
X1081272Y717726D01*
X1081258Y717616D01*
X1081241Y717507D01*
X1081220Y717398D01*
X1081195Y717290D01*
X1081166Y717183D01*
X1081134Y717077D01*
X1081098Y716972D01*
X1081058Y716869D01*
X1081015Y716767D01*
X1080968Y716666D01*
X1080917Y716567D01*
X1080864Y716471D01*
X1080807Y716376D01*
X1080746Y716283D01*
X1080683Y716192D01*
X1080616Y716103D01*
X1080546Y716017D01*
X1080473Y715934D01*
X1080398Y715852D01*
X1080320Y715774D01*
X1080238Y715699D01*
X1080155Y715626D01*
X1080069Y715556D01*
X1079980Y715489D01*
X1079889Y715426D01*
X1079796Y715365D01*
X1079702Y715308D01*
X1079605Y715255D01*
X1079506Y715204D01*
X1079405Y715157D01*
X1079303Y715114D01*
X1079200Y715074D01*
X1079095Y715038D01*
X1078989Y715006D01*
X1078882Y714977D01*
X1078774Y714952D01*
X1078665Y714931D01*
X1078556Y714914D01*
X1078446Y714900D01*
X1078335Y714891D01*
X1078225Y714885D01*
X1078114Y714883D01*
X1074939Y714883D01*
X1085798Y716153D02*
X1089608Y716153D01*
X1089708Y716151D01*
X1089807Y716145D01*
X1089907Y716135D01*
X1090005Y716122D01*
X1090104Y716104D01*
X1090201Y716083D01*
X1090297Y716058D01*
X1090393Y716029D01*
X1090487Y715996D01*
X1090580Y715960D01*
X1090671Y715920D01*
X1090761Y715876D01*
X1090849Y715829D01*
X1090935Y715779D01*
X1091019Y715725D01*
X1091101Y715668D01*
X1091180Y715608D01*
X1091258Y715544D01*
X1091332Y715478D01*
X1091404Y715409D01*
X1091473Y715337D01*
X1091539Y715263D01*
X1091603Y715185D01*
X1091663Y715106D01*
X1091720Y715024D01*
X1091774Y714940D01*
X1091824Y714854D01*
X1091871Y714766D01*
X1091915Y714676D01*
X1091955Y714585D01*
X1091991Y714492D01*
X1092024Y714398D01*
X1092053Y714302D01*
X1092078Y714206D01*
X1092099Y714109D01*
X1092117Y714010D01*
X1092130Y713912D01*
X1092140Y713812D01*
X1092146Y713713D01*
X1092148Y713613D01*
X1092148Y712978D01*
X1092146Y712867D01*
X1092140Y712757D01*
X1092131Y712646D01*
X1092117Y712536D01*
X1092100Y712427D01*
X1092079Y712318D01*
X1092054Y712210D01*
X1092025Y712103D01*
X1091993Y711997D01*
X1091957Y711892D01*
X1091917Y711789D01*
X1091874Y711687D01*
X1091827Y711586D01*
X1091776Y711487D01*
X1091723Y711391D01*
X1091666Y711296D01*
X1091605Y711203D01*
X1091542Y711112D01*
X1091475Y711023D01*
X1091405Y710937D01*
X1091332Y710854D01*
X1091257Y710772D01*
X1091179Y710694D01*
X1091097Y710619D01*
X1091014Y710546D01*
X1090928Y710476D01*
X1090839Y710409D01*
X1090748Y710346D01*
X1090655Y710285D01*
X1090561Y710228D01*
X1090464Y710175D01*
X1090365Y710124D01*
X1090264Y710077D01*
X1090162Y710034D01*
X1090059Y709994D01*
X1089954Y709958D01*
X1089848Y709926D01*
X1089741Y709897D01*
X1089633Y709872D01*
X1089524Y709851D01*
X1089415Y709834D01*
X1089305Y709820D01*
X1089194Y709811D01*
X1089084Y709805D01*
X1088973Y709803D01*
X1088862Y709805D01*
X1088752Y709811D01*
X1088641Y709820D01*
X1088531Y709834D01*
X1088422Y709851D01*
X1088313Y709872D01*
X1088205Y709897D01*
X1088098Y709926D01*
X1087992Y709958D01*
X1087887Y709994D01*
X1087784Y710034D01*
X1087682Y710077D01*
X1087581Y710124D01*
X1087482Y710175D01*
X1087386Y710228D01*
X1087291Y710285D01*
X1087198Y710346D01*
X1087107Y710409D01*
X1087018Y710476D01*
X1086932Y710546D01*
X1086849Y710619D01*
X1086767Y710694D01*
X1086689Y710772D01*
X1086614Y710854D01*
X1086541Y710937D01*
X1086471Y711023D01*
X1086404Y711112D01*
X1086341Y711203D01*
X1086280Y711296D01*
X1086223Y711391D01*
X1086170Y711487D01*
X1086119Y711586D01*
X1086072Y711687D01*
X1086029Y711789D01*
X1085989Y711892D01*
X1085953Y711997D01*
X1085921Y712103D01*
X1085892Y712210D01*
X1085867Y712318D01*
X1085846Y712427D01*
X1085829Y712536D01*
X1085815Y712646D01*
X1085806Y712757D01*
X1085800Y712867D01*
X1085798Y712978D01*
X1085798Y716153D01*
X1085800Y716293D01*
X1085806Y716433D01*
X1085815Y716573D01*
X1085829Y716712D01*
X1085846Y716851D01*
X1085867Y716989D01*
X1085892Y717127D01*
X1085921Y717264D01*
X1085953Y717400D01*
X1085990Y717535D01*
X1086030Y717669D01*
X1086073Y717802D01*
X1086121Y717934D01*
X1086171Y718065D01*
X1086226Y718194D01*
X1086284Y718321D01*
X1086345Y718447D01*
X1086410Y718571D01*
X1086479Y718693D01*
X1086550Y718813D01*
X1086625Y718931D01*
X1086703Y719048D01*
X1086785Y719162D01*
X1086869Y719273D01*
X1086957Y719382D01*
X1087047Y719489D01*
X1087141Y719594D01*
X1087237Y719695D01*
X1087336Y719794D01*
X1087437Y719890D01*
X1087542Y719984D01*
X1087649Y720074D01*
X1087758Y720162D01*
X1087869Y720246D01*
X1087983Y720328D01*
X1088100Y720406D01*
X1088218Y720481D01*
X1088338Y720552D01*
X1088460Y720621D01*
X1088584Y720686D01*
X1088710Y720747D01*
X1088837Y720805D01*
X1088966Y720860D01*
X1089097Y720910D01*
X1089229Y720958D01*
X1089362Y721001D01*
X1089496Y721041D01*
X1089631Y721078D01*
X1089767Y721110D01*
X1089904Y721139D01*
X1090042Y721164D01*
X1090180Y721185D01*
X1090319Y721202D01*
X1090458Y721216D01*
X1090598Y721225D01*
X1090738Y721231D01*
X1090878Y721233D01*
M02*
